<?xml version="1.0" standalone="no"?>
<svg version="1.1" id="Layer_1" xmlns:cc="http://creativecommons.org/ns#" xmlns:dc="http://purl.org/dc/elements/1.1/" xmlns:rdf="http://www.w3.org/1999/02/22-rdf-syntax-ns#" xmlns:svg="http://www.w3.org/2000/svg" xmlns="http://www.w3.org/2000/svg" xmlns:xlink="http://www.w3.org/1999/xlink" x="0px" y="0px" viewBox="0 0 595.2 595.2" enable-background="new 0 0 595.2 595.2" xml:space="preserve">
<path id="color_x5F_1" fill="#58343c" d="M238.591,245.986c0.579-0.907,1.521-1.342,2.102-0.971l0,0
	c0.581,0.372,0.583,1.408,0.004,2.315s-1.521,1.342-2.102,0.971C238.014,247.93,238.012,246.894,238.591,245.986z M537.005,421.032
	c0,0.663-0.537,1.2-1.2,1.2h-12.136v15.184v0.217v0.091c0,0.329-0.267,0.596-0.596,0.596h-75.525h-0.236h-78.369h-0.222h-29.637
	l2.516,10.651c0.068,0.288-0.086,0.582-0.361,0.69c-0.204,0.08-5.206,1.99-23.441,3.873c-4.771,0.493-8.278,0.692-10.859,0.692
	c-5.44,0-6.772-0.885-7.188-1.771c-0.358-0.764-0.035-1.646,0.963-2.622c1.303-1.276,3.493-1.967,6.523-2.922
	c2.079-0.655,4.435-1.397,7.173-2.523c5.128-2.107,7.89-5.429,8.839-6.756c0.057-0.08,0.108-0.152,0.152-0.217
	c0.023-0.034,0.051-0.073,0.07-0.103l-0.919-1.86c-1.584,0.32-7.06,1.38-12.665,1.963c-0.788,0.082-1.579,0.157-2.362,0.217
	c-1.457,0.111-2.886,0.178-4.221,0.178c-0.817,0-1.748-0.032-2.571-0.178c-0.309-0.055-0.602-0.125-0.868-0.217
	c-0.726-0.25-1.25-0.653-1.325-1.302c-0.22-1.906,3.991-3.705,6.293-4.244c3.404-0.796,7.065-2.695,8.365-3.406
	c-0.49-0.958-1.644-3.213-3.189-6.231h-12.301h-0.216h-49.604c0.941,4.916,1.888,10.036,2.818,15.184
	c0.013,0.072,0.026,0.145,0.039,0.217c1.418,7.858,2.794,15.774,4.044,23.12c0.012,0.073,0.024,0.144,0.037,0.217
	c2.963,17.434,5.207,31.614,5.599,34.098c0.364,0.261,1.237,0.877,2.534,1.73c0.11,0.072,0.214,0.141,0.33,0.217
	c2.521,1.644,6.49,4.081,11.504,6.657c8.845,4.545,22.158,6.17,22.291,6.187c0.172,0.02,0.313,0.126,0.409,0.267
	c0.019,0.028,0.048,0.046,0.062,0.077c0.01,0.022,0.077,0.173,0.153,0.414c0.204,0.64,0.475,1.941,0,3.331
	c-0.058,0.169-0.134,0.34-0.216,0.511c-0.031,0.065-0.047,0.129-0.082,0.194c-0.994,1.85-3.199,3.055-6.553,3.582
	c-4.223,0.665-8.953,0.022-13.959-0.658c-5.761-0.782-11.718-1.593-17.725-0.592c-11.348,1.893-17.89,1.135-18.164,1.103
	c-0.159-0.02-0.303-0.102-0.401-0.229c-0.097-0.128-0.139-0.289-0.117-0.447l2.529-17.548l-1.005-2.849l-0.076-0.217l-12.645-35.828
	l-0.077-0.217l-8.16-23.12l-0.076-0.217l-1.718-4.869l-0.133-0.377l-3.507-9.938h-14.589c-0.751,4.715-1.589,9.858-2.469,15.184
	c-0.012,0.072-0.024,0.145-0.036,0.217c-1.253,7.579-2.589,15.518-3.881,23.12c-0.012,0.072-0.024,0.145-0.037,0.217
	c-2.586,15.214-4.987,29.033-6.172,35.828c-0.013,0.072-0.026,0.146-0.038,0.217c-0.362,2.075-0.605,3.463-0.696,3.983
	c0.134,0.697,1.073,5.162,4.165,10.763c3.472,6.289,3.888,11.505,3.904,11.725c0.021,0.284-0.164,0.544-0.439,0.618
	c-0.419,0.112-8.927,2.367-16.85,2.367c-1.402,0-2.786-0.071-4.104-0.236c-4.341-0.546-6.575-1.423-7.712-3.025
	c-1.367-1.929-0.901-4.733-0.093-8.486c0.502-2.33,1.015-4.787,1.48-7.048h-59.327h-0.236H90.126c-0.329,0-0.595-0.267-0.595-0.596
	v-10.064v-0.217v-0.697c0-0.329,0.267-0.596,0.595-0.596h23.731h0.23v-0.522V460.97v-0.217v-23.12v-0.217v-15.184H59.395
	c-0.663,0-1.2-0.537-1.2-1.2s0.537-1.2,1.2-1.2h14.876h39.817v-3.406H79.705c-0.329,0-0.595-0.267-0.595-0.596v-24.865
	c0-0.329,0.267-0.596,0.595-0.596h29.476c-7.519-6.537-12.044-16.616-7.215-36.541c0-0.002,0-0.004,0-0.006
	c-0.014-0.143,0.023-0.278,0.097-0.389c1.622-6.568,4.25-14.193,8.109-23.103c1.875-4.327,3.727-8.658,5.563-12.95
	c17.092-39.957,33.222-77.723,52.325-75.987c12.55,1.125,22.234,3.362,27.883,4.939c-0.704-5.493-3.778-33.429,5.254-41.576
	c9.001-8.12,18.371-2.382,20.159-1.149c2.64-1.359,5.801-2.222,9.576-2.253c7.9-0.099,14.603,2.506,19.438,7.433
	c5.006,5.102,7.759,12.483,7.554,20.254c0,0.01,0,0.021-0.001,0.031c-0.192,7.001-3.173,11.855-7.353,16.313
	c-0.024,0.031-0.051,0.061-0.082,0.087c-1.917,2.036-4.083,3.99-6.345,6.033c-2.18,1.968-4.435,4.004-6.683,6.293
	c-1.274,1.297-2.566,2.417-3.86,3.353c-0.075,0.845-0.069,4.196,3.757,9.163c4.461,5.791,9.899,5.669,9.954,5.667
	c0.229-0.015,0.449,0.121,0.554,0.33c0.104,0.209,0.076,0.459-0.071,0.641c-0.111,0.136-2.775,3.36-7.992,4.894
	c-3.417,1.005-6.059,1.196-7.491,1.207c3.055,4.902,5.319,9.98,5.319,14.267c0,1.334-0.104,2.999-0.308,4.953h1.675
	c0.329,0,0.595,0.267,0.595,0.596v11.052h10.339c0.075-0.962,0.079-1.728,0.039-2.111c-0.045-0.436,0.112-1.075,1.116-1.644
	c1.148-0.65,3.453-1.118,4.452-0.37c0.538,0.403,1.28,0.334,2.542,0.178c0.417-0.052,0.868-0.107,1.355-0.145
	c1.203-0.092,1.637,0.074,2.166,0.34c0.267,0.134,0.542,0.272,1.165,0.364c0.665,0.097,1.296,0.053,1.907,0.01
	c0.995-0.069,1.935-0.137,2.639,0.519c0.567,0.528,0.851,1.421,0.901,2.859h6.152v-11.052c0-0.329,0.267-0.596,0.595-0.596h10.01
	c0.329,0,0.595,0.267,0.595,0.596v29.04c0,0.329-0.267,0.596-0.595,0.596h-10.01c-0.329,0-0.595-0.267-0.595-0.596v-12.354h-5.386
	c0.359,4.224-4.97,9.55-8.244,12.82c-0.499,0.499-0.943,0.942-1.302,1.318c-0.821,1.087-23.891,31.597-31.866,39.864
	c-1.127,1.169-2.282,2.219-3.45,3.143c6.288,2.786,12.232,5.614,14.339,7.72c1.983,1.983,5.407,17.016,8.973,35.413h61.355
	c-4.432-8.663-11.028-21.561-15.306-29.946c-5.706-11.183-7.078-14.843-7.394-15.83l-11.006-4.894
	c-0.145-0.064-0.258-0.184-0.314-0.332c-0.057-0.148-0.052-0.312,0.014-0.457l4.432-9.804c0.065-0.145,0.186-0.258,0.335-0.312
	c0.149-0.057,0.314-0.05,0.458,0.018l6.354,2.953c0.129-1.352,0.759-3.97,3.404-7.336c3.641-4.632,10.329-6.634,11.184-6.875
	c1.832-0.842,3.98-1.533,6.5-1.989l59.03-10.674c0.021-0.004,0.044-0.007,0.066-0.009c1.955-0.279,8.532-3.365,15.491-6.632
	c9.454-4.437,20.171-9.466,24.404-9.972c3.227-0.386,6.228-0.683,8.576-0.894l-4.115-10.972c-2.911-7.76-1.146-18.06,0.41-27.147
	c0.569-3.322,1.109-6.474,1.42-9.39c-0.488,0.031-0.979,0.046-1.466,0.046c-12.755,0-23.133-10.377-23.133-23.132
	c0-11.048,7.835-20.572,18.648-22.696c3.905-2.747,8.499-4.198,13.293-4.198c12.755,0,23.133,10.377,23.133,23.132
	c0,10.989-7.81,20.528-18.569,22.681l-0.069,0.014c-1.065,0.803-2.179,1.478-3.389,2.054l6.479,28.917
	c1.002,1.276,8.902,11.43,14.061,20.873l4.014-1.071c-1.463-2.019-3.386-5.36-2.62-7.666c0.26-0.783,0.962-1.786,2.825-2.11
	c1.654-0.287,4.625-0.382,5.992-0.412c-0.044-0.262-0.094-0.598-0.144-1.011c-0.104-0.872,0.17-1.638,0.754-2.102
	c0.741-0.586,1.841-0.623,3.278-0.103c1.571,0.569,3.217,0.653,4.234,0.63c-0.136-0.198-0.266-0.384-0.389-0.556
	c-3.805-5.318,0.233-11.432,0.407-11.689c0.104-0.156,0.278-0.253,0.467-0.262c0.187-0.01,0.369,0.073,0.488,0.219l6.48,7.955
	c0.918-0.172,3.423-0.55,6.139-0.166c2.755,0.387,7.596,2.73,9.066,14.066c0.129,0.999,0.149,1.946,0.061,2.839
	c1.807-1.218,5.325-3.231,8.618-2.986c4.003,0.296,5.223,5.846,5.543,7.956l0.232-0.096c0.146-0.06,0.31-0.061,0.455,0.002
	c0.146,0.061,0.262,0.177,0.321,0.323l6.146,14.979c0.125,0.304-0.021,0.651-0.325,0.776l-35.729,14.659l38.265,54.847l9.615,13.781
	h19.897C536.468,419.832,537.005,420.369,537.005,421.032z M293.126,375.885l-0.55-1.113c-1.691-3.424-2.555-7.051-2.58-10.538
	l-9.954-4.626l-3.937,8.71l10.682,4.749c0.02,0.008,0.039,0.017,0.058,0.026L293.126,375.885z M231.7,332.503
	c-1.289,5.667-2.458,10.451-3.07,12.91l19.54-16.338c-0.46-1.272-1.639-5.161-0.061-7.957c0.304-0.537,0.562-1.146,0.782-1.791
	h-9.301v12.58c0,0.329-0.267,0.596-0.595,0.596H231.7z M207.106,237.296c1.096,1.155,3.036,1.59,5.766,1.299
	c0.021-0.002,0.042-0.003,0.063-0.003c0.167,0,0.328,0.071,0.442,0.196c0.127,0.142,0.18,0.336,0.141,0.522
	c-0.017,0.078-1.614,7.903,1.489,16.724c1.368,3.889,3.938,6.435,7.234,7.168c3.194,0.71,6.788-0.287,10.408-2.835
	c0.031-0.027,0.065-0.052,0.102-0.072c1.289-0.917,2.579-2.029,3.857-3.331c2.273-2.315,4.542-4.363,6.735-6.343
	c2.2-1.986,4.262-3.848,6.077-5.743c-0.249-0.698-0.946-2.392-2.1-3.267c-1.213-0.919-2.645-0.882-3.043-0.847
	c-2.08,1.283-7.229,4.929-7.866,7.512c-0.105,0.428-0.205,0.862-0.304,1.292c-0.549,2.39-1.068,4.647-2.441,5.378
	c-0.572,0.304-1.226,0.317-1.945,0.041c-2.502-0.963-4.312-1.265-4.331-1.268c-0.324-0.053-0.544-0.358-0.492-0.683
	c0.053-0.324,0.356-0.548,0.683-0.492c0.078,0.012,1.941,0.321,4.567,1.332c0.517,0.199,0.794,0.105,0.958,0.019
	c0.894-0.476,1.375-2.569,1.84-4.594c0.1-0.436,0.201-0.876,0.308-1.311c0.892-3.619,8.097-8.058,8.508-8.309
	c0.032-0.021,0.067-0.038,0.104-0.052c0.047-0.018,0.095-0.03,0.143-0.036c0.238-0.032,2.272-0.265,4.029,1.066
	c1.146,0.868,1.889,2.3,2.284,3.247c3.715-4.109,6.206-8.502,6.405-14.764c-0.289-0.674-2.492-5.127-11.622-8.85
	c-13.686-5.581-19.466,4.243-24.111,12.136c-1.457,2.475-2.714,4.612-4.077,6.021c-0.205,0.212-0.533,0.241-0.772,0.072
	c-0.24-0.17-0.32-0.489-0.188-0.752c0.003-0.007,0.447-0.925,1.311-3.851c0.848-2.874-0.004-7.117-0.012-7.16
	c-1.362-3.492-3.245-5.345-5.245-5.139c-2.593,0.273-5.1,3.912-5.831,8.462C205.782,232.568,205.526,235.631,207.106,237.296z
	 M197.673,254.199c0.116,0.494,0.643,2.198,2.997,6.601c2.504,4.685,10.252,7.534,12.572,8.297c0.187-1.142,0.709-3.422,2.097-5.49
	c0.004-0.006,0.008-0.012,0.012-0.018c0.723-1.074,1.229-1.693,1.604-2.045c-1.301-1.325-2.344-3.049-3.071-5.114
	c-2.676-7.607-2.009-14.339-1.667-16.584c-1.143,0.069-2.159,0.008-3.047-0.186l-7.381,9.333c-0.007,0.009-0.014,0.019-0.021,0.027
	L197.673,254.199z M126.407,352.457c9.807,0.627,13.934,2.186,14.338,2.347c6.328,1.252,12.572,3.559,17.316,6.003
	c-10.006-15.826-28.599-45.871-29.336-53.635c-0.957-10.072,18.925-44.195,19.772-45.643c0.165-0.283,0.529-0.38,0.814-0.213
	c0.284,0.166,0.379,0.53,0.213,0.814c-0.045,0.078-1.077,1.847-2.645,4.661c1.907,0.003,6.096,0.33,11.132,2.698
	c5.641,2.652,10.14,8.775,11.616,10.958l2.226-3.446c0.178-0.276,0.546-0.355,0.823-0.177c0.276,0.178,0.355,0.547,0.177,0.823
	l-2.709,4.194c-0.009,0.014-0.018,0.028-0.027,0.042L151.12,311.29c4.798,13.434,11.861,32.323,16.571,43.307
	c0.278-0.233,0.647-0.541,1.097-0.915c0.017-0.017,0.035-0.031,0.054-0.046c5.249-4.368,21.177-17.493,33.458-26.212
	c14.591-10.359,16.627-30.311,16.646-30.511c0.031-0.327,0.324-0.564,0.648-0.537c0.327,0.031,0.568,0.321,0.537,0.648
	c-0.014,0.148-1.099,10.787-7.303,20.723c2.239,0.047,7.543,0.156,9.53,0.156c1.982,0,4.781,0.201,6.032,0.299v-15.335
	c0-0.329,0.267-0.596,0.595-0.596h7.138c0.208-1.967,0.314-3.631,0.314-4.953c0-11.283-17.233-29.164-20.488-32.439
	c-1.396,2.432-1.614,5.017-1.616,5.045c-0.014,0.178-0.107,0.34-0.253,0.442c-0.147,0.103-0.332,0.134-0.503,0.083
	c-0.438-0.125-10.776-3.137-13.957-9.089c-3.017-5.644-3.169-7.095-3.169-7.329c0-0.134,0.045-0.264,0.128-0.369l3.75-4.742
	c-3.044-1.041-14.895-4.776-32.376-6.342c-18.231-1.614-34.206,35.722-51.124,75.269c-1.837,4.295-3.69,8.627-5.565,12.955
	c-3.722,8.592-6.304,15.949-7.943,22.291C106.434,352.816,117.753,351.902,126.407,352.457z M113.988,415.234l-3.663-23.674H80.3
	v23.674H113.988z M115.193,415.234h52.223c-9.774-3.145-36.64-12.056-49.228-18.874c-2.26-1.224-4.475-2.532-6.537-4.027
	L115.193,415.234z M169.379,496.101v0.697v0.217v4.134c0.206-1.026,0.343-1.717,0.38-1.907l0.024-2.227l0.002-0.217l0.386-35.828
	l0.002-0.217l0.249-23.12l0.002-0.217l0.164-15.184h-24.181h-0.236h-18.777v15.184v0.217v23.12v0.217v3.839v0.535v30.161h41.389
	C169.113,495.505,169.379,495.771,169.379,496.101z M170.615,419.832l0.037-3.406h-43.257v3.406H170.615z M168.189,506.483v-9.787
	H126.8c-0.329,0-0.595-0.267-0.595-0.596v-79.675h-10.927V496.1c0,0.329-0.267,0.596-0.595,0.596H90.721v9.787L168.189,506.483
	L168.189,506.483z M186.599,501.55l-15.766-1.601c-0.389,1.954-1.786,8.938-3.095,15.023c-0.86,3.996-1.095,6.145-0.1,7.547
	c0.91,1.283,2.97,2.041,6.889,2.533c7.536,0.945,17.662-1.393,20.001-1.974c-0.19-1.427-0.962-5.778-3.702-10.742
	C187.932,507.094,186.884,502.897,186.599,501.55z M193.011,380.248c-0.14-0.766-0.607-1.422-1.148-2.182
	c-0.822-1.155-1.846-2.593-1.91-4.906c-0.087-3.149-4.86-4.938-4.908-4.956c-0.05-0.011-10.092-2.696-13.166-3.638
	c-0.887-0.272-2.679-3.657-4.892-8.648c-0.055-0.074-0.09-0.156-0.106-0.241c-5.619-12.729-13.871-35.546-16.98-44.263
	c-0.062-0.175-0.04-0.368,0.061-0.523l18.961-29.351c-1.011-1.536-5.684-8.278-11.417-10.974
	c-5.551-2.609-10.106-2.622-11.295-2.567c-5.772,10.437-16.988,31.806-16.299,39.06c0.542,5.71,11.606,25.555,32.886,58.983
	c1.067,1.678,1.781,2.799,2.02,3.196c1.615,2.684,5.722,6.649,9.796,7.062c4.409,0.445,9.598,1.172,9.649,1.179
	c0.104,0.015,0.202,0.057,0.285,0.121l2.522,1.972c2.263,1.767,4.308,3.363,6.13,4.828
	C193.239,383.241,193.243,381.522,193.011,380.248z M199.614,365.981c-1.109-12.658,2.229-31.947,3.269-37.512
	c-11.691,8.312-26.659,20.586-32.521,25.452C173.484,355.118,184.072,359.242,199.614,365.981z M214.774,419.832l-1.593-4.515
	l-10.595-3.063c-0.351,2.325-0.746,4.871-1.173,7.578H214.774z M222.668,376.311c1.365-1.015,2.719-2.212,4.039-3.58
	c7.987-8.28,31.31-39.143,31.787-39.775c0.01-0.014,0.021-0.027,0.033-0.04c0.007-0.009,0.015-0.017,0.022-0.024
	c0.367-0.386,0.825-0.844,1.34-1.358c3.104-3.102,8.881-8.875,7.775-12.533c-0.423-1.4-0.638-2.943-0.638-4.586
	c0-1.318-0.179-2.154-0.531-2.482c-0.309-0.287-0.863-0.263-1.743-0.202c-0.643,0.047-1.371,0.097-2.164-0.02
	c-0.813-0.119-1.208-0.318-1.526-0.478c-0.349-0.176-0.58-0.29-1.54-0.217c-0.468,0.035-0.899,0.089-1.3,0.139
	c-1.316,0.165-2.454,0.305-3.401-0.406c-0.382-0.286-2.048-0.172-3.15,0.452c-0.406,0.23-0.525,0.427-0.519,0.485
	c0.156,1.505-0.225,6.864-2.006,10.02c-1.549,2.743,0.184,7.088,0.277,7.315c0.104,0.236,0.045,0.521-0.163,0.696l-38.438,32.139
	c-0.252,0.21-0.628,0.176-0.838-0.075c-0.211-0.252-0.178-0.628,0.075-0.839l17.018-14.229c0.276-1.093,1.733-6.885,3.402-14.209
	h-1.495c-0.329,0-0.595-0.267-0.595-0.596v-12.511c-1.185-0.093-4.066-0.302-6.032-0.302c-2.274,0-8.85-0.141-10.291-0.173
	c-2.047,3.052-4.593,5.995-7.771,8.495c-0.481,2.489-4.858,25.699-3.417,39.328c0.027,0.081,0.037,0.167,0.027,0.254
	c0.329,2.934,0.935,5.408,1.918,7.109c2.105,3.645,4.892,5.702,8.284,6.117c3.499,0.428,7.499-0.936,11.421-3.813
	C222.571,376.371,222.618,376.337,222.668,376.311z M244.164,500.275l-2.404,16.684c1.872,0.137,7.983,0.39,17.218-1.148
	c2.072-0.346,4.129-0.483,6.169-0.483c4.046,0,8.022,0.541,11.911,1.069c4.917,0.668,9.562,1.299,13.614,0.662
	c2.958-0.466,4.87-1.461,5.683-2.958c0.67-1.236,0.399-2.536,0.223-3.107c-2.227-0.299-14.125-2.047-22.329-6.263
	c-7.961-4.091-13.332-7.845-14.493-8.677L244.164,500.275z M466.899,351.667l-6.025,2.473l46.598,66.243h7.368L466.899,351.667z
	 M394.463,420.383h8.264l-26.898-31.35l-10.413,4.272l-18.24,27.077h6.511l17.166-25.961c0.103-0.155,0.271-0.254,0.457-0.266
	c0.183-0.02,0.366,0.062,0.488,0.203L394.463,420.383z M371.413,395.731l-15.936,24.101h36.928L371.413,395.731z M403.822,419.832
	h92.782h9.025l-4.33-6.156l-41.555-59.073l-82.755,33.953L403.822,419.832z M496.641,321.964l-117.466,48.194
	c-0.012,0.006-0.023,0.011-0.036,0.015l-35.556,14.589l4.689,11.429c0.003,0.006,0.006,0.013,0.009,0.02l0.997,2.43l15.484-6.354
	c0.022-0.011,0.046-0.021,0.069-0.028l10.916-4.479c0.018-0.009,0.035-0.016,0.053-0.022l83.897-34.422
	c0.021-0.011,0.045-0.02,0.067-0.027l7.107-2.917c0.011-0.004,0.021-0.009,0.031-0.013l35.851-14.709l-5.694-13.878l-0.38,0.156
	C496.667,321.953,496.654,321.959,496.641,321.964z M328.019,392.701c0.291,1.068,0.811,2.741,1.591,4.437
	c1.129,2.452,4.482,1.863,4.623,1.838l12.678-2.969l-1.521-3.71c-1.472,0.376-5.812,1.472-8.207,1.928
	c-0.786,0.147-1.479-0.024-2.008-0.503c-0.581-0.524-0.888-1.346-1.046-2.158l-1.207,2.67c-0.134,0.298-0.484,0.431-0.784,0.299
	L328.019,392.701z M332.08,393.204l3.938-8.713l-18.673-8.043l4.352,12.14L332.08,393.204z M450.431,329.931
	c2.644-1.371,5.335-2.399,7.293-3.065c-1.184-0.175-1.984-0.386-2.355-0.496l-7.099,3.165c0.195,0.578,0.373,1.167,0.526,1.762
	C449.183,330.751,449.729,330.295,450.431,329.931z M448.379,340.479l2.267-0.931c-0.373-0.491-0.893-1.229-1.364-2.095
	C449.134,338.497,448.845,339.514,448.379,340.479z M482.45,317.283c-0.317,1.12-0.838,2.135-1.56,3.036
	c-2.606,3.257-6.957,3.941-7.826,4.048c-0.691,0.425-4.088,2.358-9.088,2.7c-1.135,0.078-2.174,0.091-3.108,0.065
	c-0.68,0.186-5.36,1.506-9.889,3.854c-0.936,0.485-1.47,1.14-1.634,2c-0.421,2.221,1.683,5.127,2.445,6.091l43.998-18.052
	c-0.218-1.585-1.201-6.992-4.492-7.235C487.595,313.51,483.3,316.635,482.45,317.283z M466.504,304.541
	c-0.508,2.229-0.519,5.267-0.514,5.986c3.144,5.344,6.357,11.109,7.196,12.619c1.155-0.186,4.683-0.951,6.78-3.577
	c1.383-1.731,1.907-3.975,1.558-6.666c-1.368-10.553-5.632-12.699-8.051-13.039c-2.528-0.356-4.9,0.001-5.747,0.156
	C467.503,300.739,466.96,302.541,466.504,304.541z M460.627,301.935c1.063,1.486,2.585,3.929,4.209,6.646
	c0.056-1.276,0.191-2.916,0.508-4.305c0.472-2.067,1.034-3.93,1.258-4.645l-5.959-7.315
	C459.768,293.983,458.004,298.27,460.627,301.935z M442.291,318.106c0.296,0.562,0.58,1.119,0.852,1.672
	c0.43,0.584,3.012,4.185,4.722,8.633l6.786-3.025l-0.621-2.953c-0.038-0.182,0.012-0.372,0.134-0.513l1.631-1.876
	c-0.035-0.317-0.026-0.635,0.028-0.942c0.057-0.323,0.364-0.546,0.689-0.482c0.323,0.057,0.54,0.365,0.482,0.689
	c-0.022,0.128-0.055,0.414,0.01,0.782c0.004,0.018,0.007,0.035,0.01,0.053c0.073,0.375,0.249,0.826,0.634,1.277
	c0.679,0.795,2.147,1.774,5.374,1.682c1.837-0.029,2.946-0.719,2.967-1.846c0.026-1.444-1.876-3.684-6.042-3.902
	c-0.274-0.015-0.503-0.215-0.554-0.484l-0.416-2.198c-0.05-0.264,0.084-0.529,0.326-0.646l5.73-2.77
	c-1.516-2.579-3.015-5.063-4.217-6.914c-0.888,0.066-3.181,0.139-5.41-0.669c-0.991-0.357-1.749-0.39-2.131-0.084
	c-0.37,0.293-0.333,0.86-0.313,1.026c0.13,1.084,0.26,1.576,0.262,1.581c0.047,0.178,0.01,0.368-0.102,0.515
	s-0.283,0.234-0.468,0.236c-0.044,0-4.464,0.05-6.52,0.407c-1.044,0.182-1.666,0.61-1.898,1.312c-0.631,1.9,1.457,5.366,2.924,7.225
	c0.026,0.027,0.05,0.057,0.07,0.089c0.219,0.272,0.422,0.508,0.598,0.693c2.164,2.288,4.818,2.087,4.927,2.083
	c0.325-0.035,0.615,0.213,0.645,0.54s-0.211,0.615-0.537,0.646c-0.132,0.013-3.321,0.274-5.899-2.45
	c-0.116-0.123-0.27-0.297-0.448-0.514L442.291,318.106z M414.26,299.646c0.286,1.884,3.082,9.421,6.192,17.063
	c0.046,0.068,0.079,0.146,0.094,0.23c3.197,7.842,6.703,15.735,8.149,17.691c1.443,1.951,7.463,2.606,11.878,0.631
	c2.427-1.086,5.122-3.324,4.188-7.822c-2.147-10.332-17.968-30.451-18.127-30.652c-0.056-0.07-0.095-0.152-0.114-0.239
	l-6.607-29.492c-0.005-0.018-0.009-0.035-0.013-0.053l-0.31-1.385c-1.895-0.039-3.733-0.306-5.491-0.775
	C414.035,269.726,413.721,296.098,414.26,299.646z M416.241,316.74c1.246-0.107,2.232-0.185,2.869-0.231
	c-3.053-7.536-5.745-14.825-6.028-16.684c-0.35-2.304-0.356-13.445-0.296-22.698c-0.101,0.595-0.203,1.196-0.308,1.803
	c-1.531,8.938-3.268,19.069-0.469,26.528L416.241,316.74z M367.348,335.389c3.115,9.981,7.308,23.325,11.888,33.458l67.311-27.617
	c3.006-4.134,1.361-10.029-0.722-14.489c0.037,0.154,0.071,0.307,0.103,0.457c0.854,4.114-0.873,7.363-4.867,9.15
	c-4.68,2.096-11.403,1.585-13.321-1.01c-1.45-1.961-4.942-9.806-8.156-17.671c-1.498,0.109-6.839,0.52-13.008,1.256
	c-4.042,0.483-14.666,5.469-24.039,9.868C375.81,331.947,369.914,334.714,367.348,335.389z M317.011,375.008l20.035,8.63
	c0.146,0.063,0.262,0.183,0.319,0.332c0.059,0.148,0.054,0.314-0.013,0.46l-2.172,4.806c-0.051,0.808-0.006,2.886,0.791,3.604
	c0.159,0.143,0.434,0.324,0.987,0.216c2.283-0.435,6.379-1.463,7.974-1.87l-2.677-6.522c-0.06-0.146-0.06-0.31,0.002-0.455
	c0.061-0.146,0.177-0.262,0.323-0.321l28.245-11.589C353.448,375.324,323.166,375.089,317.011,375.008z M322.005,434.349
	l-2.588-5.239c-0.684,0.067-2.063,0.189-3.069,0.189h-2.2c-0.831,0.473-5.03,2.792-9.044,3.731
	c-3.049,0.713-5.446,2.392-5.382,2.947c0,0.006,0.28,0.642,3.581,0.642C310.062,436.619,319.325,434.881,322.005,434.349z
	 M332.897,419.832h13.213l17.321-25.713l-14.253,5.848c-0.301,0.124-0.65-0.021-0.776-0.325l-1.034-2.52l-12.891,3.019
	c-0.205,0.038-4.431,0.794-5.95-2.505c-1.114-2.42-1.706-4.738-1.895-5.551l-4.38-1.947L332.897,419.832z M337.761,437.894
	c-0.007-0.021-0.012-0.043-0.016-0.065l-0.506-2.142c-4.275,1.603-6.557,1.741-9.18,1.901c-1.085,0.065-2.203,0.134-3.55,0.313
	c-0.685,1.062-3.597,5.102-9.647,7.589c-2.785,1.145-5.271,1.928-7.268,2.558c-2.873,0.905-4.949,1.56-6.049,2.638
	c-0.563,0.55-0.832,1.023-0.719,1.265c0.226,0.478,2.103,1.922,16.847,0.4c14.976-1.547,21.01-3.136,22.643-3.637L337.761,437.894z
	 M522.478,421.574h-6.489c-0.005,0-0.01-0.001-0.013,0h-8.806c-0.005,0-0.01-0.001-0.013,0H394.193c-0.001,0-0.001,0-0.001,0h-40.18
	c-0.003,0-0.01,0-0.015,0h-7.936c-0.004,0-0.009,0-0.015,0H333.52l4.698,13.105c0.004,0.011,0.008,0.022,0.012,0.034
	c0.005,0.016,0.009,0.03,0.012,0.046l0.56,2.368h183.675v-15.553H522.478z M159.64,321.989c-0.315,0.094-0.496,0.425-0.402,0.74
	s0.426,0.496,0.739,0.402c4.698-1.389,8.636-1.251,13.487-0.599l-6.712,1.802c-0.289,0.078-0.475,0.356-0.436,0.653
	c0.039,0.296,0.292,0.518,0.59,0.518c0.02,0,2.056,0.003,7.371,0.248c5.283,0.244,13.708,2.117,13.792,2.136
	c0.044,0.01,0.087,0.015,0.13,0.015c0.272,0,0.519-0.188,0.581-0.466c0.072-0.321-0.13-0.639-0.451-0.711
	c-0.349-0.078-8.609-1.913-13.998-2.163c-1.297-0.06-2.397-0.105-3.321-0.14l5.547-1.489c0.272-0.073,0.456-0.327,0.44-0.607
	c-0.015-0.281-0.226-0.514-0.504-0.556C170.091,320.787,165.46,320.271,159.64,321.989z M229.296,231.683
	c0.026-0.005,2.657-0.246,5.579,1.517c2.929,1.767,3.903,3.861,3.912,3.88c0.099,0.222,0.316,0.354,0.544,0.354
	c0.081,0,0.163-0.016,0.241-0.051c0.3-0.133,0.436-0.485,0.302-0.786c-0.044-0.099-1.113-2.443-4.385-4.417
	c-3.283-1.979-6.198-1.696-6.319-1.682c-0.326,0.035-0.562,0.327-0.528,0.653C228.677,231.478,228.976,231.718,229.296,231.683z
	 M222.54,255.966c2.016,1.448,5.066,2.258,5.195,2.292c0.05,0.014,0.101,0.02,0.151,0.02c0.264,0,0.505-0.177,0.575-0.444
	c0.083-0.318-0.107-0.644-0.425-0.727c-0.029-0.008-2.964-0.787-4.802-2.107c-1.726-1.239-2.116-2.65-2.119-2.66
	c-0.08-0.318-0.4-0.512-0.722-0.433c-0.319,0.08-0.513,0.403-0.433,0.722C219.979,252.702,220.438,254.457,222.54,255.966z
	 M232.498,239.222L232.498,239.222c-0.582-0.372-1.523,0.063-2.102,0.97c-0.579,0.907-0.578,1.944,0.004,2.316
	c0.582,0.371,1.523-0.063,2.102-0.971C233.082,240.63,233.08,239.594,232.498,239.222z"></path>
<path id="color_x5F_w" fill="#f9e1d8" d="M267.665,318.999c1.105,3.658-4.671,9.432-7.775,12.533
	c-0.515,0.515-0.973,0.973-1.34,1.358c-0.008,0.008-0.015,0.016-0.022,0.024c-0.011,0.013-0.022,0.026-0.033,0.04
	c-0.478,0.633-23.8,31.495-31.787,39.775c-1.32,1.368-2.674,2.565-4.039,3.58c-0.05,0.026-0.097,0.061-0.138,0.102
	c-3.922,2.878-7.922,4.241-11.421,3.813c-3.392-0.415-6.179-2.473-8.284-6.117c-0.983-1.701-1.589-4.176-1.918-7.109
	c0.01-0.087,0-0.173-0.027-0.254c-1.441-13.629,2.936-36.839,3.417-39.328c3.178-2.501,5.724-5.444,7.771-8.495
	c1.441,0.032,8.017,0.173,10.291,0.173c1.966,0,4.847,0.209,6.032,0.302v12.511c0,0.329,0.267,0.596,0.595,0.596h1.495
	c-1.669,7.324-3.125,13.116-3.402,14.209l-17.02,14.228c-0.252,0.211-0.286,0.587-0.075,0.839c0.21,0.251,0.586,0.285,0.838,0.075
	l38.438-32.139c0.208-0.175,0.267-0.46,0.163-0.696c-0.093-0.228-1.826-4.572-0.277-7.315c1.781-3.155,2.162-8.515,2.006-10.02
	c-0.006-0.059,0.112-0.255,0.519-0.485c1.102-0.624,2.769-0.738,3.15-0.452c0.947,0.711,2.085,0.571,3.401,0.406
	c0.401-0.05,0.833-0.104,1.3-0.139c0.96-0.073,1.191,0.041,1.54,0.217c0.318,0.159,0.713,0.358,1.526,0.478
	c0.793,0.116,1.521,0.066,2.164,0.02c0.88-0.061,1.434-0.085,1.743,0.202c0.352,0.328,0.531,1.164,0.531,2.482
	C267.027,316.056,267.242,317.599,267.665,318.999z M213.242,269.097c0.187-1.142,0.709-3.422,2.097-5.49
	c0.004-0.006,0.008-0.012,0.012-0.018c0.723-1.074,1.229-1.693,1.604-2.045c-1.301-1.325-2.344-3.049-3.071-5.114
	c-2.676-7.607-2.009-14.339-1.667-16.584c-1.143,0.069-2.159,0.008-3.047-0.186l-7.381,9.333c-0.007,0.009-0.014,0.019-0.021,0.027
	l-4.095,5.178c0.116,0.494,0.643,2.198,2.997,6.601C203.173,265.484,210.922,268.333,213.242,269.097z M191.863,378.066
	c-0.822-1.155-1.846-2.593-1.91-4.906c-0.087-3.149-4.86-4.938-4.908-4.956c-0.05-0.011-10.092-2.696-13.166-3.638
	c-0.887-0.272-2.679-3.657-4.892-8.648c-0.055-0.074-0.09-0.156-0.106-0.241c-5.619-12.729-13.871-35.546-16.98-44.263
	c-0.062-0.175-0.04-0.368,0.061-0.523l18.961-29.351c-1.011-1.536-5.684-8.278-11.417-10.974
	c-5.551-2.609-10.106-2.622-11.295-2.567c-5.772,10.437-16.988,31.806-16.299,39.06c0.542,5.71,11.606,25.555,32.886,58.983
	c1.067,1.678,1.781,2.799,2.02,3.196c1.615,2.684,5.722,6.649,9.796,7.062c4.409,0.445,9.598,1.172,9.649,1.179
	c0.104,0.015,0.202,0.057,0.285,0.121l2.522,1.972c2.263,1.767,4.308,3.363,6.13,4.828c0.039-1.159,0.043-2.878-0.188-4.152
	C192.872,379.482,192.404,378.826,191.863,378.066z M207.106,237.296c-1.58-1.666-1.325-4.729-0.926-7.211
	c0.731-4.551,3.238-8.189,5.831-8.462c2-0.207,3.883,1.646,5.245,5.139c0.008,0.042,0.86,4.286,0.012,7.16
	c-0.864,2.926-1.308,3.844-1.311,3.851c-0.132,0.263-0.052,0.582,0.188,0.752c0.239,0.169,0.567,0.14,0.772-0.072
	c1.362-1.409,2.62-3.546,4.077-6.021c4.646-7.893,10.426-17.717,24.111-12.136c9.13,3.723,11.333,8.176,11.622,8.85
	c-0.199,6.262-2.69,10.655-6.405,14.764c-0.395-0.947-1.138-2.379-2.284-3.247c-1.756-1.331-3.791-1.099-4.029-1.066
	c-0.048,0.006-0.096,0.018-0.143,0.036c-0.037,0.014-0.072,0.031-0.104,0.052c-0.411,0.251-7.616,4.69-8.508,8.309
	c-0.107,0.435-0.208,0.875-0.308,1.311c-0.465,2.025-0.946,4.118-1.84,4.594c-0.164,0.086-0.441,0.18-0.958-0.019
	c-2.626-1.01-4.489-1.319-4.567-1.332c-0.327-0.057-0.63,0.168-0.683,0.492c-0.053,0.325,0.167,0.63,0.492,0.683
	c0.018,0.003,1.829,0.305,4.331,1.268c0.719,0.276,1.373,0.263,1.945-0.041c1.374-0.731,1.892-2.988,2.441-5.378
	c0.099-0.43,0.199-0.864,0.304-1.292c0.637-2.583,5.787-6.229,7.866-7.512c0.398-0.035,1.83-0.073,3.043,0.847
	c1.154,0.875,1.851,2.569,2.1,3.267c-1.815,1.896-3.877,3.757-6.077,5.743c-2.193,1.98-4.461,4.028-6.735,6.343
	c-1.278,1.301-2.568,2.414-3.857,3.331c-0.036,0.02-0.07,0.044-0.102,0.072c-3.62,2.548-7.213,3.545-10.408,2.835
	c-3.297-0.733-5.866-3.279-7.234-7.168c-3.103-8.82-1.505-16.646-1.489-16.724c0.039-0.187-0.013-0.381-0.141-0.522
	c-0.114-0.125-0.274-0.196-0.442-0.196c-0.021,0-0.042,0.001-0.063,0.003C210.142,238.886,208.202,238.452,207.106,237.296z
	 M238.595,248.302c0.582,0.371,1.523-0.063,2.102-0.971c0.579-0.907,0.577-1.944-0.004-2.315l0,0
	c-0.582-0.371-1.523,0.063-2.102,0.971C238.012,246.894,238.014,247.93,238.595,248.302z M232.498,239.222L232.498,239.222
	c-0.582-0.372-1.523,0.063-2.102,0.97c-0.579,0.907-0.578,1.944,0.004,2.316c0.582,0.371,1.523-0.063,2.102-0.971
	C233.082,240.63,233.08,239.594,232.498,239.222z M228.644,231.152c0.034,0.326,0.332,0.566,0.653,0.531
	c0.026-0.005,2.657-0.246,5.579,1.517c2.929,1.767,3.903,3.861,3.912,3.88c0.099,0.222,0.316,0.354,0.544,0.354
	c0.081,0,0.163-0.016,0.241-0.051c0.3-0.133,0.436-0.485,0.302-0.786c-0.044-0.099-1.113-2.443-4.385-4.417
	c-3.283-1.979-6.198-1.696-6.319-1.682C228.845,230.533,228.609,230.826,228.644,231.152z M219.96,252.628
	c0.019,0.074,0.477,1.829,2.58,3.338c2.016,1.448,5.066,2.258,5.195,2.292c0.05,0.014,0.101,0.02,0.151,0.02
	c0.264,0,0.505-0.177,0.575-0.444c0.083-0.318-0.107-0.644-0.425-0.727c-0.029-0.008-2.964-0.787-4.802-2.107
	c-1.726-1.239-2.116-2.65-2.119-2.66c-0.08-0.318-0.4-0.512-0.722-0.433C220.075,251.986,219.881,252.309,219.96,252.628z
	 M322.005,434.349l-2.588-5.239c-0.684,0.067-2.063,0.189-3.069,0.189h-2.2c-0.831,0.473-5.03,2.792-9.044,3.731
	c-3.049,0.713-5.446,2.392-5.382,2.947c0,0.006,0.28,0.642,3.581,0.642C310.062,436.619,319.325,434.881,322.005,434.349z
	 M337.745,437.828l-0.506-2.142c-4.275,1.603-6.557,1.741-9.18,1.901c-1.085,0.065-2.203,0.134-3.55,0.313
	c-0.685,1.062-3.597,5.102-9.647,7.589c-2.785,1.145-5.271,1.928-7.268,2.558c-2.873,0.905-4.949,1.56-6.049,2.638
	c-0.563,0.55-0.832,1.023-0.719,1.265c0.226,0.478,2.103,1.922,16.847,0.4c14.976-1.547,21.01-3.136,22.643-3.637l-2.556-10.82
	C337.754,437.872,337.749,437.851,337.745,437.828z M464.836,308.581c0.056-1.276,0.191-2.916,0.508-4.305
	c0.472-2.067,1.034-3.93,1.258-4.645l-5.959-7.315c-0.875,1.667-2.639,5.954-0.016,9.618
	C461.69,303.421,463.212,305.863,464.836,308.581z M481.524,312.903c-1.368-10.553-5.632-12.699-8.051-13.039
	c-2.528-0.356-4.9,0.001-5.747,0.156c-0.224,0.719-0.767,2.521-1.223,4.521c-0.508,2.229-0.519,5.267-0.514,5.986
	c3.144,5.344,6.357,11.109,7.196,12.619c1.155-0.186,4.683-0.951,6.78-3.577C481.35,317.838,481.874,315.595,481.524,312.903z
	 M412.786,277.127c-0.101,0.595-0.203,1.196-0.308,1.803c-1.531,8.938-3.268,19.069-0.469,26.528l4.231,11.282
	c1.246-0.107,2.232-0.185,2.869-0.231c-3.053-7.536-5.745-14.825-6.028-16.684C412.732,297.521,412.726,286.38,412.786,277.127z
	 M426.634,296.787c-0.056-0.07-0.095-0.152-0.114-0.239l-6.607-29.492c-0.005-0.018-0.009-0.035-0.013-0.053l-0.31-1.385
	c-1.895-0.039-3.733-0.306-5.491-0.775c-0.063,4.883-0.378,31.254,0.161,34.802c0.286,1.884,3.082,9.421,6.192,17.063
	c0.046,0.068,0.079,0.146,0.094,0.23c3.197,7.842,6.703,15.735,8.149,17.691c1.443,1.951,7.463,2.606,11.878,0.631
	c2.427-1.086,5.122-3.324,4.188-7.822C442.613,317.107,426.793,296.989,426.634,296.787z M459.946,317.354
	c-0.274-0.015-0.503-0.215-0.554-0.484l-0.416-2.198c-0.05-0.264,0.084-0.529,0.326-0.646l5.73-2.77
	c-1.516-2.579-3.015-5.063-4.217-6.914c-0.888,0.066-3.181,0.139-5.41-0.669c-0.991-0.357-1.749-0.39-2.131-0.084
	c-0.37,0.293-0.333,0.86-0.313,1.026c0.13,1.084,0.26,1.576,0.262,1.581c0.047,0.178,0.01,0.368-0.102,0.515
	s-0.283,0.234-0.468,0.236c-0.044,0-4.464,0.05-6.52,0.407c-1.044,0.182-1.666,0.61-1.898,1.312c-0.631,1.9,1.457,5.366,2.924,7.225
	c0.026,0.027,0.05,0.057,0.07,0.089c0.219,0.272,0.422,0.508,0.598,0.693c2.164,2.288,4.818,2.087,4.927,2.083
	c0.325-0.035,0.615,0.213,0.645,0.54s-0.211,0.615-0.537,0.646c-0.132,0.013-3.321,0.274-5.899-2.45
	c-0.116-0.123-0.27-0.297-0.448-0.514l-4.224,1.128c0.296,0.562,0.58,1.119,0.852,1.672c0.43,0.584,3.012,4.185,4.722,8.633
	l6.786-3.025l-0.621-2.953c-0.038-0.182,0.012-0.372,0.134-0.513l1.631-1.876c-0.035-0.317-0.026-0.635,0.028-0.942
	c0.057-0.323,0.364-0.546,0.689-0.482c0.323,0.057,0.54,0.365,0.482,0.689c-0.022,0.128-0.055,0.414,0.01,0.782
	c0.004,0.018,0.007,0.035,0.01,0.053c0.073,0.375,0.249,0.826,0.634,1.277c0.679,0.795,2.147,1.774,5.374,1.682
	c1.837-0.029,2.946-0.719,2.967-1.846C466.015,319.812,464.112,317.573,459.946,317.354z"></path>
<path id="color_x5F_3" fill="#cbf99a" d="M446.546,341.229l-67.311,27.617c-4.58-10.133-8.772-23.477-11.888-33.458
	c2.566-0.675,8.462-3.441,15.188-6.598c9.373-4.399,19.997-9.385,24.039-9.868c6.169-0.736,11.51-1.146,13.008-1.256
	c3.214,7.865,6.706,15.71,8.156,17.671c1.918,2.595,8.642,3.105,13.321,1.01c3.994-1.787,5.722-5.036,4.867-9.15
	c-0.031-0.15-0.065-0.303-0.103-0.457C447.907,331.2,449.552,337.096,446.546,341.229z"></path>
<path id="color_x5F_4" fill="#87d0e5" d="M199.614,365.981c-15.542-6.739-26.13-10.863-29.253-12.06
	c5.862-4.866,20.83-17.141,32.521-25.452C201.843,334.034,198.505,353.323,199.614,365.981z M448.379,340.479l2.267-0.931
	c-0.373-0.491-0.893-1.229-1.364-2.095C449.134,338.497,448.845,339.514,448.379,340.479z M342.581,383.886l28.245-11.589
	c-17.378,3.027-47.66,2.792-53.815,2.711l20.035,8.63c0.146,0.063,0.262,0.183,0.319,0.332c0.059,0.148,0.054,0.314-0.013,0.46
	l-2.172,4.806c-0.051,0.808-0.006,2.886,0.791,3.604c0.159,0.143,0.434,0.324,0.987,0.216c2.283-0.435,6.379-1.463,7.974-1.87
	l-2.677-6.522c-0.06-0.146-0.06-0.31,0.002-0.455C342.318,384.062,342.435,383.945,342.581,383.886z M248.892,319.327h-9.301v12.58
	c0,0.329-0.267,0.596-0.595,0.596H231.7c-1.289,5.667-2.458,10.451-3.07,12.91l19.54-16.338c-0.46-1.272-1.639-5.161-0.061-7.957
	C248.414,320.581,248.672,319.972,248.892,319.327z M355.477,419.832h36.928l-20.992-24.101L355.477,419.832z M475.028,160.442
	c-52.444-32.465-100.698,10.981-132.271-35.23C240.53-24.411,37.877,68.583,67.964,182.917
	c18.729,71.173,38.709,88.655,9.34,136.104c-26.821,43.333-6.723,92.59-3.034,100.81h39.817v-3.406H79.705
	c-0.329,0-0.595-0.267-0.595-0.596v-24.865c0-0.329,0.267-0.596,0.595-0.596h29.476c-7.519-6.537-12.044-16.616-7.215-36.541
	c0-0.002,0-0.004,0-0.006c-0.014-0.143,0.023-0.278,0.097-0.389c1.622-6.568,4.25-14.193,8.109-23.103
	c1.875-4.327,3.727-8.658,5.563-12.95c17.092-39.957,33.222-77.723,52.325-75.987c12.55,1.125,22.234,3.362,27.883,4.939
	c-0.704-5.493-3.778-33.429,5.254-41.576c9.001-8.12,18.371-2.382,20.159-1.149c2.64-1.359,5.801-2.222,9.576-2.253
	c7.9-0.099,14.603,2.506,19.438,7.433c5.006,5.102,7.759,12.483,7.554,20.254c0,0.01,0,0.021-0.001,0.031
	c-0.192,7.001-3.173,11.855-7.353,16.313c-0.024,0.031-0.051,0.061-0.082,0.087c-1.917,2.036-4.083,3.99-6.345,6.033
	c-2.18,1.968-4.435,4.004-6.683,6.293c-1.274,1.297-2.566,2.417-3.86,3.353c-0.075,0.845-0.069,4.196,3.757,9.163
	c4.461,5.791,9.899,5.669,9.954,5.667c0.229-0.015,0.449,0.121,0.554,0.33c0.104,0.209,0.076,0.459-0.071,0.641
	c-0.111,0.136-2.775,3.36-7.992,4.894c-3.417,1.005-6.059,1.196-7.491,1.207c3.055,4.902,5.319,9.98,5.319,14.267
	c0,1.334-0.104,2.999-0.308,4.953h1.675c0.329,0,0.595,0.267,0.595,0.596v11.052h10.339c0.075-0.962,0.079-1.728,0.039-2.111
	c-0.045-0.436,0.112-1.075,1.116-1.644c1.148-0.65,3.453-1.118,4.452-0.37c0.538,0.403,1.28,0.334,2.542,0.178
	c0.417-0.052,0.868-0.107,1.355-0.145c1.203-0.092,1.637,0.074,2.166,0.34c0.267,0.134,0.542,0.272,1.165,0.364
	c0.665,0.097,1.296,0.053,1.907,0.01c0.995-0.069,1.935-0.137,2.639,0.519c0.567,0.528,0.851,1.421,0.901,2.859h6.152v-11.052
	c0-0.329,0.267-0.596,0.595-0.596h10.01c0.329,0,0.595,0.267,0.595,0.596v29.04c0,0.329-0.267,0.596-0.595,0.596h-10.01
	c-0.329,0-0.595-0.267-0.595-0.596v-12.354h-5.386c0.359,4.224-4.97,9.55-8.244,12.82c-0.499,0.499-0.943,0.942-1.302,1.318
	c-0.821,1.087-23.891,31.597-31.866,39.864c-1.127,1.169-2.282,2.219-3.45,3.143c6.288,2.786,12.232,5.614,14.339,7.72
	c1.983,1.983,5.407,17.016,8.973,35.413h61.355c-4.432-8.663-11.028-21.561-15.306-29.946c-5.706-11.183-7.078-14.843-7.394-15.83
	l-11.006-4.894c-0.145-0.064-0.258-0.184-0.314-0.332c-0.057-0.148-0.052-0.312,0.014-0.457l4.432-9.804
	c0.065-0.145,0.186-0.258,0.335-0.312c0.149-0.057,0.314-0.05,0.458,0.018l6.354,2.953c0.129-1.352,0.759-3.97,3.404-7.336
	c3.641-4.632,10.329-6.634,11.184-6.875c1.832-0.842,3.98-1.533,6.5-1.989l59.03-10.674c0.021-0.004,0.044-0.007,0.066-0.009
	c1.955-0.279,8.532-3.365,15.491-6.632c9.454-4.437,20.171-9.466,24.404-9.972c3.227-0.386,6.228-0.683,8.576-0.894l-4.115-10.972
	c-2.911-7.76-1.146-18.06,0.41-27.147c0.569-3.322,1.109-6.474,1.42-9.39c-0.488,0.031-0.979,0.046-1.466,0.046
	c-12.755,0-23.133-10.377-23.133-23.132c0-11.048,7.835-20.572,18.648-22.696c3.905-2.747,8.499-4.198,13.293-4.198
	c12.755,0,23.133,10.377,23.133,23.132c0,10.989-7.81,20.528-18.569,22.681l-0.069,0.014c-1.065,0.803-2.179,1.478-3.389,2.054
	l6.479,28.917c1.002,1.276,8.902,11.43,14.061,20.873l4.014-1.071c-1.463-2.019-3.386-5.36-2.62-7.666
	c0.26-0.783,0.962-1.786,2.825-2.11c1.654-0.287,4.625-0.382,5.992-0.412c-0.044-0.262-0.094-0.598-0.144-1.011
	c-0.104-0.872,0.17-1.638,0.754-2.102c0.741-0.586,1.841-0.623,3.278-0.103c1.571,0.569,3.217,0.653,4.234,0.63
	c-0.136-0.198-0.266-0.384-0.389-0.556c-3.805-5.318,0.233-11.432,0.407-11.689c0.104-0.156,0.278-0.253,0.467-0.262
	c0.187-0.01,0.369,0.073,0.488,0.219l6.48,7.955c0.918-0.172,3.423-0.55,6.139-0.166c2.755,0.387,7.596,2.73,9.066,14.066
	c0.129,0.999,0.149,1.946,0.061,2.839c1.807-1.218,5.325-3.231,8.618-2.986c4.003,0.296,5.223,5.846,5.543,7.956l0.232-0.096
	c0.146-0.06,0.31-0.061,0.455,0.002c0.146,0.061,0.262,0.177,0.321,0.323l6.146,14.979c0.125,0.304-0.021,0.651-0.325,0.776
	l-35.729,14.659l38.265,54.847C548.097,336.927,543.246,202.671,475.028,160.442z M127.396,419.832h43.22l0.037-3.406h-43.257
	C127.396,416.426,127.396,419.832,127.396,419.832z M202.586,412.254c-0.351,2.325-0.746,4.871-1.173,7.578h13.361l-1.593-4.515
	L202.586,412.254z M349.179,399.967c-0.301,0.124-0.65-0.021-0.776-0.325l-1.034-2.52l-12.891,3.019
	c-0.205,0.038-4.431,0.794-5.95-2.505c-1.114-2.42-1.706-4.738-1.895-5.551l-4.38-1.947l10.644,29.694h13.213l17.321-25.713
	L349.179,399.967z M455.368,326.369l-7.099,3.165c0.195,0.578,0.373,1.167,0.526,1.762c0.387-0.545,0.933-1.001,1.635-1.365
	c2.644-1.371,5.335-2.399,7.293-3.065C456.54,326.69,455.739,326.479,455.368,326.369z M376.989,388.557l26.833,31.275h92.782
	c1.616-1.969,3.181-4.022,4.694-6.156l-41.555-59.073L376.989,388.557z"></path>
<path id="color_x5F_5" fill="#ffffff" d="M214.333,269.924c-0.014,0.178-0.107,0.34-0.253,0.442
	c-0.147,0.103-0.332,0.134-0.503,0.083c-0.438-0.125-10.776-3.137-13.957-9.089c-3.017-5.644-3.169-7.095-3.169-7.329
	c0-0.134,0.045-0.264,0.128-0.369l3.75-4.742c-3.044-1.041-14.895-4.776-32.376-6.342c-18.231-1.614-34.206,35.722-51.124,75.269
	c-1.837,4.295-3.69,8.627-5.565,12.955c-3.722,8.592-6.304,15.949-7.943,22.291c3.114-0.278,14.433-1.192,23.086-0.638
	c9.807,0.627,13.934,2.186,14.338,2.347c6.328,1.252,12.572,3.559,17.316,6.003c-10.006-15.826-28.599-45.871-29.336-53.635
	c-0.957-10.072,18.925-44.195,19.772-45.643c0.165-0.283,0.529-0.38,0.814-0.213c0.284,0.166,0.379,0.53,0.213,0.814
	c-0.045,0.078-1.077,1.847-2.645,4.661c1.907,0.003,6.096,0.33,11.132,2.698c5.641,2.652,10.14,8.775,11.616,10.958l2.226-3.446
	c0.178-0.276,0.546-0.355,0.823-0.177c0.276,0.178,0.355,0.547,0.177,0.823l-2.709,4.194c-0.009,0.014-0.018,0.028-0.027,0.042
	L151.12,311.29c4.798,13.434,11.861,32.323,16.571,43.307c0.278-0.233,0.647-0.541,1.097-0.915c0.017-0.017,0.035-0.031,0.054-0.046
	c5.249-4.368,21.177-17.493,33.458-26.212c14.591-10.359,16.627-30.311,16.646-30.511c0.031-0.327,0.324-0.564,0.648-0.537
	c0.327,0.031,0.568,0.321,0.537,0.648c-0.014,0.148-1.099,10.787-7.303,20.723c2.239,0.047,7.543,0.156,9.53,0.156
	c1.982,0,4.781,0.201,6.032,0.299v-15.335c0-0.329,0.267-0.596,0.595-0.596h7.138c0.208-1.967,0.314-3.631,0.314-4.953
	c0-11.283-17.233-29.164-20.488-32.439C214.553,267.311,214.336,269.896,214.333,269.924z M188.779,327.438
	c-0.062,0.277-0.308,0.466-0.581,0.466c-0.043,0-0.086-0.005-0.13-0.015c-0.084-0.019-8.509-1.892-13.792-2.136
	c-5.315-0.245-7.351-0.248-7.371-0.248c-0.299,0-0.551-0.222-0.59-0.518c-0.039-0.297,0.147-0.575,0.436-0.653l6.712-1.802
	c-4.851-0.652-8.789-0.79-13.487,0.599c-0.313,0.094-0.646-0.087-0.739-0.402s0.087-0.646,0.402-0.74
	c5.82-1.719,10.452-1.202,16.853-0.217c0.278,0.042,0.489,0.274,0.504,0.556c0.016,0.28-0.168,0.534-0.44,0.607l-5.547,1.489
	c0.923,0.034,2.023,0.08,3.321,0.14c5.388,0.25,13.648,2.085,13.998,2.163C188.649,326.8,188.851,327.117,188.779,327.438z
	 M495.789,321.026l-43.998,18.052c-0.763-0.964-2.866-3.87-2.445-6.091c0.164-0.86,0.698-1.515,1.634-2
	c4.528-2.349,9.209-3.669,9.889-3.854c0.935,0.025,1.974,0.013,3.108-0.065c5-0.342,8.396-2.275,9.088-2.7
	c0.869-0.106,5.22-0.791,7.826-4.048c0.722-0.901,1.242-1.916,1.56-3.036c0.85-0.648,5.145-3.773,8.847-3.492
	C494.588,314.034,495.571,319.441,495.789,321.026z"></path>
<path id="color_x5F_6" fill="#a18e96" d="M514.84,420.383h-7.368l-46.598-66.243l6.025-2.473L514.84,420.383z M466.904,350.378
	l35.851-14.709l-5.694-13.878l-0.38,0.156c-0.014,0.006-0.026,0.012-0.04,0.017l-117.466,48.194
	c-0.012,0.006-0.023,0.011-0.036,0.015l-35.556,14.589l4.689,11.429c0.003,0.006,0.006,0.013,0.009,0.02l0.997,2.43l15.484-6.354
	c0.022-0.011,0.046-0.021,0.069-0.028l10.916-4.479c0.018-0.009,0.035-0.016,0.053-0.022l83.897-34.422
	c0.021-0.011,0.045-0.02,0.067-0.027l7.107-2.917C466.884,350.387,466.894,350.382,466.904,350.378z M337.182,394.225
	c-0.786,0.147-1.479-0.024-2.008-0.503c-0.581-0.524-0.888-1.346-1.046-2.158l-1.207,2.67c-0.134,0.298-0.484,0.431-0.784,0.299
	l-4.118-1.831c0.291,1.068,0.811,2.741,1.591,4.437c1.129,2.452,4.482,1.863,4.623,1.838l12.678-2.969l-1.521-3.71
	C343.917,392.673,339.577,393.769,337.182,394.225z M365.415,393.306l-18.24,27.077h6.511l17.166-25.961
	c0.103-0.155,0.271-0.254,0.457-0.266c0.183-0.02,0.366,0.062,0.488,0.203l22.666,26.023h8.264l-26.898-31.35L365.415,393.306z
	 M336.019,384.491l-18.673-8.043l4.352,12.14l10.383,4.616L336.019,384.491z M286.845,373.093l6.281,2.792l-0.55-1.113
	c-1.691-3.424-2.555-7.051-2.58-10.538l-9.954-4.626l-3.937,8.71l10.682,4.749C286.807,373.074,286.826,373.083,286.845,373.093z
	 M186.599,501.55l-15.766-1.601c-0.389,1.954-1.786,8.938-3.095,15.023c-0.86,3.996-1.095,6.145-0.1,7.547
	c0.91,1.283,2.97,2.041,6.889,2.533c7.536,0.945,17.662-1.393,20.001-1.974c-0.19-1.427-0.962-5.778-3.702-10.742
	C187.932,507.094,186.884,502.897,186.599,501.55z M274.249,504.73c-7.961-4.091-13.332-7.845-14.493-8.677l-15.592,4.222
	l-2.404,16.684c1.872,0.137,7.983,0.39,17.218-1.148c2.072-0.346,4.129-0.483,6.169-0.483c4.046,0,8.022,0.541,11.911,1.069
	c4.917,0.668,9.562,1.299,13.614,0.662c2.958-0.466,4.87-1.461,5.683-2.958c0.67-1.236,0.399-2.536,0.223-3.107
	C294.351,510.694,282.453,508.946,274.249,504.73z"></path>
<path id="color_x5F_7" fill="#666666" d="M110.326,391.561l3.663,23.674H80.3v-23.674H110.326z M111.65,392.333l3.543,22.901h52.223
	c-9.774-3.145-36.64-12.056-49.228-18.874C115.927,395.136,113.713,393.828,111.65,392.333z M515.988,421.574
	c-0.005,0-0.01-0.001-0.013,0h-8.806c-0.005,0-0.01-0.001-0.013,0H394.193c-0.001,0-0.001,0-0.001,0h-40.18c-0.003,0-0.01,0-0.015,0
	h-7.936c-0.004,0-0.009,0-0.015,0H333.52l4.698,13.105c0.004,0.011,0.008,0.022,0.012,0.034c0.005,0.016,0.009,0.03,0.012,0.046
	l0.56,2.368h183.675v-15.554L515.988,421.574L515.988,421.574z"></path>
<path id="color_x5F_8" fill="#999999" d="M168.189,496.696v9.787H90.721v-9.787h23.961c0.329,0,0.595-0.267,0.595-0.596v-79.675
	h10.927V496.1c0,0.329,0.267,0.596,0.595,0.596L168.189,496.696L168.189,496.696z"></path>
<path id="color_x5F_9" fill="#CCCCCC" d="M89.531,497.015H59.395v-0.217h30.136V497.015z M523.669,437.416v0.217h12.136v-0.217
	H523.669z M114.087,494.983l-0.23,0.522h0.23V494.983z M170.172,460.97l0.002-0.217H129.42l10.197-23.12h30.807l0.002-0.217h-30.714
	l6.697-15.184h-0.236l-6.696,15.184h-12.081v0.217h11.985l-10.197,23.12h-1.789v0.217h1.693l-1.693,3.839v0.535l1.929-4.374H170.172
	z M323.4,437.416h-13.514c-0.788,0.082-1.579,0.157-2.362,0.217h15.724C323.305,437.553,323.355,437.481,323.4,437.416z
	 M457.441,460.753h78.363v0.217h-78.268l15.801,35.828h62.467v0.217h-62.371l17.284,39.191h45.087v0.217h-44.991l4.926,11.169
	l-0.197,0.088l-4.965-11.257h-98.556l2.633,11.188l-0.211,0.049l-2.644-11.237h-94.092v11.213h-0.216v-11.213H194.826l-2.644,11.237
	l-0.21-0.049l2.632-11.188H96.048l-4.965,11.257l-0.197-0.088l4.926-11.169H59.395v-0.217h36.512l12.583-28.531h0.236
	l-12.583,28.531h98.511l9.22-39.191H188.4c0.012-0.07,0.025-0.145,0.038-0.217h15.487l8.429-35.828H194.61
	c0.012-0.072,0.025-0.144,0.037-0.217h17.758l5.439-23.12h-19.316c0.012-0.072,0.024-0.145,0.036-0.217h19.331l1.234-5.246
	l0.133,0.377l-1.145,4.869h2.864l0.076,0.217h-2.991l-5.439,23.12h16.59l0.077,0.217h-16.718l-8.429,35.828h37.792l0.076,0.217
	h-37.919l-9.22,39.191h102.616v-21.748c0.082-0.171,0.158-0.341,0.216-0.511v22.259h94.041l-9.22-39.191h-84.821v13.601
	c-0.077-0.241-0.143-0.392-0.153-0.414c-0.014-0.031-0.044-0.049-0.062-0.077v-13.111H263.29c-0.116-0.075-0.22-0.145-0.33-0.217
	h34.533V460.97h-42.666c-0.012-0.073-0.024-0.144-0.037-0.217h42.703v-23.12h-46.747c-0.013-0.072-0.026-0.145-0.039-0.217h46.786
	v-15.184h0.216v15.184h2.156c0.266,0.092,0.559,0.162,0.868,0.217h-3.024v23.12H374l-5.278-22.434h0.222l5.278,22.434h82.984
	l-9.893-22.434h0.236L457.441,460.753z M382.479,496.798l-8.429-35.828h-76.342v35.828H382.479z M473.197,497.015h-90.446
	l9.22,39.191h98.512L473.197,497.015z M457.301,460.97h-83.029l8.429,35.828h90.402L457.301,460.97z M114.087,460.753H59.395v0.217
	h54.692C114.087,460.97,114.087,460.753,114.087,460.753z M114.087,437.416H59.395v0.217h54.692
	C114.087,437.633,114.087,437.416,114.087,437.416z M169.784,497.015l0.002-0.217h-0.407v0.217H169.784z"></path>
</svg>