<?xml version="1.0" standalone="no"?>
<!DOCTYPE svg PUBLIC "-//W3C//DTD SVG 20010904//EN"
 "http://www.w3.org/TR/2001/REC-SVG-20010904/DTD/svg10.dtd">
<svg version="1.0" xmlns="http://www.w3.org/2000/svg"
 width="574.000000pt" height="996.000000pt" viewBox="0 0 574.000000 996.000000"
 preserveAspectRatio="xMidYMid meet">

<g transform="translate(0.000000,996.000000) scale(0.100000,-0.100000)"
fill="#000000" stroke="none">
<path d="M2215 9940 c-4 -7 -22 -9 -45 -5 -35 6 -39 4 -42 -17 -3 -20 -8 -23
-45 -21 -35 2 -43 -1 -44 -15 0 -10 -3 -12 -6 -5 -7 18 -73 -37 -73 -60 0 -10
-4 -15 -10 -12 -16 10 -12 -2 20 -59 l31 -54 112 5 c62 2 123 7 137 10 42 9
103 7 147 -6 31 -8 44 -18 51 -39 6 -15 11 -20 13 -12 1 8 5 -10 9 -40 5 -38
3 -63 -6 -82 -15 -30 -7 -63 15 -63 8 0 16 -6 19 -12 2 -8 -5 -13 -17 -13 -32
0 -29 -48 3 -60 28 -10 33 -23 41 -110 3 -36 8 -72 10 -80 3 -8 1 -38 -3 -66
-6 -38 -5 -56 5 -70 18 -24 16 -37 -3 -30 -15 6 -15 4 -3 -10 11 -13 10 -17
-4 -25 -21 -12 -23 -43 -2 -35 22 8 18 -4 -8 -28 -13 -12 -22 -27 -19 -34 4
-12 -36 -61 -50 -62 -5 0 -8 9 -8 19 0 11 -4 23 -10 26 -5 3 -10 -3 -10 -14 0
-27 -50 -132 -60 -126 -4 3 -7 -3 -6 -12 1 -12 -11 -20 -36 -26 -21 -5 -38
-13 -38 -18 0 -13 -52 -58 -67 -59 -7 0 -13 -4 -13 -9 0 -14 -70 -34 -113 -33
-31 2 -38 -1 -35 -15 2 -9 21 -22 43 -30 38 -13 40 -15 41 -56 2 -80 49 -141
78 -102 19 27 25 18 27 -38 1 -26 6 -47 10 -47 16 0 39 32 45 65 3 19 11 35
18 35 12 0 42 40 38 53 -1 4 7 7 18 7 20 0 73 67 64 82 -3 4 39 52 93 105 98
97 102 99 29 10 -49 -60 -41 -73 9 -15 39 44 38 39 -2 -21 -13 -19 -23 -39
-23 -45 1 -12 43 32 72 74 l18 25 -6 -30 -5 -30 25 28 26 29 20 -24 19 -23 1
25 c0 14 -4 40 -9 58 -6 20 -6 82 0 163 6 72 8 133 5 136 -2 3 -15 -2 -28 -10
-12 -8 -35 -17 -50 -21 -15 -3 -30 -15 -33 -26 -9 -29 -25 -14 -20 18 3 15 7
43 8 62 2 20 6 41 10 47 4 6 9 38 12 71 5 71 13 86 69 130 47 35 90 41 105 15
17 -31 26 -4 24 70 -2 54 -13 104 -45 200 l-42 128 -87 82 c-47 45 -103 93
-125 106 -80 49 -274 96 -289 71z m12 -132 c-3 -8 -6 -5 -6 6 -1 11 2 17 5 13
3 -3 4 -12 1 -19z m301 -364 c-3 -40 -18 -58 -18 -20 0 25 9 56 16 56 3 0 4
-16 2 -36z m50 -549 c-3 -3 -9 2 -12 12 -6 14 -5 15 5 6 7 -7 10 -15 7 -18z
m72 -1 c0 -9 -50 -104 -55 -104 -2 0 0 12 6 27 6 15 11 45 11 65 0 34 2 36 19
27 11 -5 19 -12 19 -15z m-26 -112 c-34 -58 -148 -179 -189 -199 -19 -9 6 20
66 78 56 55 106 114 120 142 13 26 26 42 27 37 2 -6 -9 -32 -24 -58z m-53 -4
c-21 -46 -34 -62 -96 -118 -41 -37 -39 -27 6 31 15 19 33 47 40 62 7 15 19 27
26 27 8 0 11 5 8 11 -6 9 25 42 33 34 2 -2 -5 -23 -17 -47z"/>
<path d="M1910 9659 c0 -11 5 -17 10 -14 6 3 10 13 10 21 0 8 -4 14 -10 14 -5
0 -10 -9 -10 -21z"/>
<path d="M3365 9550 c-4 -6 -10 -8 -14 -5 -16 9 -100 -54 -141 -106 -51 -64
-75 -111 -100 -192 -17 -56 -52 -239 -67 -357 -3 -25 -9 -47 -13 -50 -12 -9
-29 -70 -24 -84 3 -8 1 -17 -5 -21 -6 -3 -11 -11 -11 -16 0 -6 5 -7 10 -4 6 3
10 2 10 -4 0 -5 -4 -12 -9 -15 -4 -3 -11 -28 -15 -56 -4 -28 -9 -57 -12 -65
-8 -20 -24 -19 -24 1 0 8 -4 12 -10 9 -5 -3 -10 -17 -10 -31 0 -16 -4 -23 -11
-18 -8 5 -10 -1 -5 -19 4 -17 1 -31 -10 -41 -10 -10 -15 -30 -13 -54 2 -30 14
-49 59 -97 66 -69 77 -89 124 -216 42 -113 53 -154 39 -146 -6 4 -13 21 -17
39 -7 37 -37 98 -48 98 -10 0 20 -96 44 -144 16 -30 18 -49 13 -90 -11 -91 -9
-149 9 -256 23 -128 25 -238 7 -348 -12 -73 -12 -88 2 -120 8 -20 23 -75 31
-122 9 -47 34 -143 57 -215 35 -113 67 -228 85 -315 3 -14 12 -38 19 -55 7
-16 30 -82 50 -145 21 -63 48 -141 61 -172 36 -87 27 -83 -16 6 l-38 79 -21
-48 c-21 -47 -51 -140 -51 -157 0 -5 6 -8 13 -7 34 4 50 -5 82 -48 19 -27 35
-51 35 -56 0 -4 -48 -6 -108 -6 -141 2 -166 -8 -236 -96 -29 -36 -102 -179
-111 -217 -10 -38 -17 -35 -37 12 -9 22 -21 40 -27 40 -6 0 -15 -19 -21 -42
-23 -95 -54 -197 -78 -258 -13 -36 -37 -105 -52 -155 -29 -94 -48 -115 -74
-79 -12 16 -14 16 -33 -3 -15 -15 -24 -18 -32 -10 -7 7 -12 6 -16 -5 -4 -10 4
-26 20 -42 14 -15 23 -31 19 -38 -5 -7 0 -9 14 -6 17 5 22 2 22 -13 0 -29 1
-33 11 -46 20 -23 8 -262 -14 -293 -8 -11 -17 -17 -21 -13 -4 5 -6 -5 -4 -21
3 -28 1 -30 -60 -44 -55 -13 -65 -14 -73 -1 -5 8 -7 19 -4 26 5 15 -11 27 -25
18 -8 -5 -8 -11 0 -20 8 -10 6 -15 -10 -20 -19 -6 -21 -12 -15 -41 3 -20 2
-34 -4 -34 -6 0 -7 8 -4 18 6 15 5 15 -10 3 -9 -7 -17 -21 -17 -31 0 -9 -8
-24 -19 -34 -16 -14 -20 -15 -30 -2 -10 12 -5 23 28 58 26 28 37 48 32 57 -6
10 -12 9 -26 -5 -17 -17 -18 -17 -31 1 -8 10 -14 27 -14 36 0 23 -16 32 -44
25 -26 -7 -39 -44 -23 -71 7 -13 6 -16 -4 -13 -8 3 -16 19 -19 36 -3 17 -15
42 -27 55 -25 30 -32 69 -16 88 6 8 15 50 19 94 5 64 12 89 35 123 29 43 41
83 15 49 -8 -10 -17 -14 -20 -8 -3 5 11 23 31 39 l38 30 0 -42 c0 -39 1 -41
29 -39 36 3 37 4 41 50 5 72 35 207 48 215 9 6 8 14 -5 35 -9 15 -20 29 -25
30 -5 2 -18 -20 -28 -49 -27 -76 -29 -38 -5 83 27 129 42 356 29 441 -23 156
-39 303 -44 423 -6 127 -6 133 30 270 20 77 40 155 45 174 14 58 5 232 -15
266 l-17 30 5 -37 c4 -23 2 -38 -5 -38 -6 0 -8 -9 -5 -20 3 -10 1 -20 -4 -22
-8 -3 -5 -22 16 -83 3 -11 -5 0 -19 25 -37 66 -113 303 -132 411 -14 80 -14
110 -4 204 15 145 17 152 37 159 12 5 33 -11 75 -55 32 -34 58 -65 58 -70 0
-4 8 -15 17 -24 16 -16 17 -16 25 4 4 12 5 42 1 66 -4 33 -11 46 -27 51 -27 9
-45 33 -46 62 0 16 -5 23 -17 21 -35 -3 -45 1 -39 17 3 8 2 12 -4 9 -6 -3 -10
1 -10 9 0 9 -4 16 -8 16 -5 0 -20 22 -33 50 -22 46 -39 63 -39 40 0 -21 -37
-9 -66 21 -40 43 -96 70 -110 55 -12 -13 -8 -89 6 -116 6 -10 10 -21 10 -23 0
-9 -28 -1 -44 12 -9 7 -16 10 -16 6 0 -4 -6 -2 -14 4 -9 8 -16 8 -20 2 -4 -6
-13 -8 -21 -4 -11 3 -15 -2 -16 -18 -2 -48 -4 -54 -15 -52 -15 3 -6 -33 12
-48 17 -14 19 -33 3 -23 -8 5 -8 1 0 -14 15 -28 15 -29 -15 -36 -22 -6 -24 -9
-12 -23 11 -15 11 -16 -6 -10 -15 6 -18 3 -14 -18 3 -13 2 -23 -1 -20 -4 2
-13 0 -20 -4 -9 -6 -3 -12 19 -20 30 -10 32 -9 27 9 -5 18 -4 18 19 3 30 -19
30 -26 -2 -43 -19 -11 -27 -11 -33 -2 -10 16 -49 17 -85 3 -24 -10 -30 -9 -41
6 -8 11 -10 20 -4 24 11 6 -37 69 -52 69 -5 0 -9 -13 -9 -29 0 -16 -7 -35 -16
-42 -22 -18 -13 -74 20 -123 26 -39 28 -67 2 -30 -46 63 -45 63 -45 9 0 -27 6
-63 13 -80 l13 -30 16 30 c21 38 20 28 -2 -67 -17 -73 -17 -78 -1 -78 9 0 20
3 23 6 6 6 104 43 116 44 2 0 -2 -7 -9 -15 -10 -12 -10 -15 3 -15 8 0 17 4 19
9 5 16 58 25 58 11 0 -9 4 -9 13 -3 25 20 70 21 101 2 17 -10 45 -19 62 -19
60 0 96 -12 91 -29 -2 -9 2 -22 8 -28 7 -6 10 -23 8 -37 -4 -19 -11 -26 -29
-26 -13 0 -24 5 -24 10 0 12 -68 3 -87 -12 -7 -5 -14 -5 -17 1 -4 6 -13 8 -22
4 -14 -5 -11 -18 4 -18 4 0 13 -4 21 -9 8 -5 38 -8 66 -7 39 2 55 -2 68 -17
17 -19 14 -51 -4 -53 -5 -1 -13 -2 -18 -3 -5 0 -13 -5 -18 -10 -5 -5 -3 -6 5
-2 7 4 12 2 12 -5 0 -8 -10 -9 -30 -5 -23 4 -36 0 -50 -14 -11 -11 -30 -20
-43 -20 -20 -1 -20 -2 -4 -11 21 -12 22 -29 2 -29 -18 0 -35 29 -35 60 0 6 -5
10 -11 10 -5 0 -7 -5 -3 -12 5 -8 2 -9 -12 -3 -34 14 -104 6 -130 -16 -10 -8
-14 -8 -14 -1 0 6 -6 9 -14 6 -9 -3 -12 -12 -9 -21 4 -10 2 -14 -5 -9 -14 8
-21 -4 -27 -46 -6 -37 -12 -178 -7 -178 1 0 13 7 27 16 21 14 24 14 34 -3 9
-16 10 -16 11 -1 0 9 -5 18 -10 20 -26 8 47 134 86 148 13 5 24 16 24 24 0 7
10 16 23 20 33 9 42 7 30 -5 -6 -6 -9 -17 -7 -24 4 -9 -3 -11 -20 -8 -21 4
-28 0 -36 -23 -6 -16 -20 -38 -31 -50 -21 -23 -21 -63 0 -102 7 -13 10 -29 8
-36 -3 -6 1 -20 9 -31 8 -10 14 -14 14 -9 0 6 -5 15 -12 22 -17 17 13 16 31 0
11 -11 12 -9 3 8 -9 16 -7 24 7 35 9 9 22 14 29 11 7 -2 12 1 12 7 0 6 7 11
16 11 9 0 22 7 29 17 9 13 14 13 20 3 5 -9 4 -11 -3 -6 -7 4 -12 1 -12 -8 0
-9 5 -16 10 -16 6 0 8 -10 4 -24 -3 -13 -2 -26 3 -29 15 -9 73 5 66 16 -4 6 7
7 33 2 21 -4 47 -8 57 -7 9 0 17 -5 17 -11 0 -7 9 -19 20 -27 11 -8 20 -20 20
-27 0 -7 9 -22 21 -34 11 -11 18 -23 15 -26 -3 -4 -1 -12 5 -20 6 -7 8 -13 3
-13 -5 0 -9 -16 -10 -36 0 -28 -9 -43 -38 -70 -20 -19 -48 -37 -61 -40 -14 -3
-25 -10 -25 -16 0 -5 -5 -6 -11 -3 -5 4 -27 -5 -48 -19 -34 -24 -48 -27 -148
-29 l-110 -3 -39 -37 c-21 -20 -42 -37 -45 -37 -15 0 -40 -52 -34 -72 7 -19
10 -18 46 18 43 42 67 39 26 -4 -21 -22 -26 -38 -29 -87 -2 -46 -7 -61 -20
-63 -12 -2 -15 2 -11 20 4 21 3 21 -13 -4 -10 -15 -34 -35 -53 -45 -20 -10
-42 -24 -49 -30 -7 -7 -19 -13 -25 -13 -18 0 -50 -87 -51 -140 -1 -26 -7 -55
-15 -64 -8 -9 -11 -19 -8 -22 3 -3 17 13 31 35 15 23 32 42 39 43 44 5 66 4
61 -4 -4 -6 -14 -8 -23 -5 -20 5 -45 -11 -49 -32 -1 -7 -13 -27 -27 -45 -46
-61 -127 -277 -110 -294 8 -8 84 123 105 179 13 33 24 58 27 56 8 -9 -28 -117
-63 -187 -24 -48 -39 -94 -42 -127 -2 -29 -8 -53 -11 -53 -4 0 -5 17 -3 38 3
35 2 36 -13 17 -9 -12 -15 -34 -13 -55 3 -30 7 -35 30 -37 19 -1 31 6 43 23 9
13 13 29 10 34 -3 6 1 22 10 37 8 16 22 55 29 88 l14 60 -3 -108 c-2 -60 -8
-114 -13 -120 -26 -35 -43 -162 -26 -196 10 -19 14 -21 14 -8 0 9 5 17 10 17
6 0 10 -7 10 -15 0 -8 5 -15 10 -15 6 0 10 5 10 10 0 6 5 10 10 10 6 0 10 -7
10 -15 0 -18 20 -20 20 -2 0 6 5 4 11 -7 9 -15 13 -16 20 -5 7 11 11 10 24 -6
9 -11 14 -15 11 -9 -3 6 -1 26 4 45 5 19 12 47 15 62 5 24 9 27 28 21 33 -10
47 -26 18 -22 -29 4 -51 -39 -26 -48 8 -4 15 -10 15 -15 0 -4 -7 -6 -15 -3
-21 9 -20 -30 3 -52 16 -17 16 -17 -4 -12 -17 4 -22 1 -23 -18 -4 -56 -6 -62
-14 -57 -4 3 -6 17 -2 32 5 26 4 27 -82 46 -48 10 -92 20 -98 21 -37 6 -220
47 -230 50 -16 6 -20 -1 -30 -45 -7 -33 -6 -34 9 -18 21 20 18 20 53 5 15 -6
39 -12 53 -12 14 -1 31 -5 38 -9 6 -5 17 -5 22 -2 5 3 10 1 10 -5 0 -7 8 -9
19 -5 11 3 22 2 25 -3 3 -5 19 -8 35 -7 22 1 31 -4 36 -19 6 -18 8 -19 12 -3
6 22 19 22 27 0 6 -14 9 -15 15 -4 6 9 10 6 15 -11 l7 -23 10 24 c11 29 14 27
31 -25 10 -28 11 -45 4 -57 -7 -11 -6 -21 6 -34 21 -24 12 -43 -19 -43 -24 0
-25 2 -17 38 12 60 10 87 -6 88 -8 1 -19 3 -25 4 -5 1 -14 2 -19 1 -4 -1 -14
4 -22 10 -11 9 -14 9 -14 -1 0 -10 -3 -10 -14 -1 -20 17 -56 -20 -56 -57 0
-15 -5 -33 -11 -39 -6 -6 -9 -17 -7 -25 3 -7 12 3 21 25 9 20 18 37 21 37 9 0
-6 -64 -20 -87 -8 -13 -10 -23 -4 -23 5 0 10 -9 10 -21 0 -18 5 -16 35 17 19
22 35 36 35 32 0 -11 -42 -82 -55 -93 -17 -14 -29 -55 -16 -55 5 0 13 5 16 10
13 21 27 -3 20 -37 -4 -24 -3 -33 4 -28 13 8 14 -5 2 -24 -7 -11 -11 -10 -19
5 -9 16 -10 13 -9 -17 1 -21 5 -35 9 -32 5 2 8 -6 7 -19 0 -13 4 -41 10 -63
13 -49 13 -67 0 -40 -7 14 -8 9 -3 -20 3 -22 10 -43 15 -46 6 -3 7 -18 3 -32
-4 -18 -2 -27 6 -27 7 0 10 -8 7 -20 -3 -13 -1 -18 6 -13 7 4 8 0 3 -13 -11
-28 -18 -292 -7 -298 4 -3 7 -26 4 -52 -3 -37 -1 -45 11 -41 12 5 13 0 5 -26
-5 -18 -9 -50 -8 -72 1 -39 1 -40 12 -12 6 15 14 27 17 27 9 0 -1 -69 -11 -76
-13 -8 -11 -132 2 -140 9 -5 10 1 5 20 -4 18 -3 25 4 21 5 -3 10 -42 10 -88 0
-45 5 -89 10 -97 8 -12 39 -15 174 -15 l165 0 32 -50 c17 -27 41 -61 54 -75
41 -45 83 -137 95 -212 15 -91 25 -111 33 -68 11 52 27 24 27 -48 1 -96 25
-269 41 -289 12 -14 12 -16 0 -9 -11 7 -11 5 -4 -9 6 -10 8 -27 6 -39 -4 -17
-3 -18 6 -6 9 13 11 13 11 -2 0 -9 -3 -19 -8 -22 -6 -4 -8 -141 -2 -141 1 0 3
-29 5 -65 2 -36 13 -136 24 -224 20 -154 23 -378 5 -446 -3 -14 -10 -43 -14
-65 -4 -22 -18 -67 -30 -100 -25 -66 -46 -98 -35 -52 7 25 4 29 -24 40 -17 6
-31 15 -31 19 0 11 28 10 49 -2 16 -8 20 -4 29 33 6 23 13 62 16 87 4 41 3 43
-9 26 -8 -11 -12 -29 -9 -43 5 -19 2 -23 -18 -23 -13 0 -29 -5 -36 -12 -22
-22 -22 -2 -2 45 12 26 36 59 55 74 42 34 47 53 6 24 -16 -12 -31 -21 -34 -21
-2 0 -7 17 -10 38 -8 49 -29 77 -51 69 -27 -10 -39 -56 -31 -122 9 -76 9 -105
1 -113 -4 -3 -26 4 -49 17 -27 15 -53 21 -72 18 -28 -4 -28 -4 6 -6 33 -1 89
-32 89 -50 0 -4 -17 -17 -38 -28 -20 -12 -48 -33 -61 -47 -33 -35 -47 -33 -60
12 l-11 37 4 -43 c4 -43 4 -44 -22 -38 l-27 6 27 -22 c23 -20 25 -28 19 -63
-5 -28 -12 -39 -22 -36 -8 3 -25 5 -39 5 -14 0 -28 5 -32 11 -5 6 -8 4 -9 -5
-1 -17 -98 -104 -107 -96 -3 3 3 15 14 27 18 20 18 20 -6 14 -14 -3 -36 -6
-50 -7 -14 -1 -31 -6 -37 -11 -7 -5 -13 -7 -13 -3 0 3 -18 -2 -41 -11 -34 -13
-42 -14 -49 -2 -13 20 -22 -9 -18 -57 3 -36 7 -41 58 -66 50 -25 67 -27 190
-30 l135 -3 35 33 c61 58 66 58 84 5 19 -55 20 -74 3 -52 -7 8 -27 21 -45 27
-29 10 -37 9 -63 -10 -27 -20 -28 -23 -14 -45 15 -22 15 -22 -10 -11 -23 10
-29 8 -66 -31 -35 -36 -39 -44 -27 -58 11 -14 10 -15 -9 -9 -22 7 -111 -29
-100 -41 3 -2 14 0 25 6 26 14 33 14 30 -1 -6 -24 -41 -56 -81 -73 -23 -9 -50
-21 -59 -26 -40 -21 -100 -37 -119 -32 -12 4 -25 0 -30 -8 -8 -12 -10 -12 -18
0 -7 11 -10 8 -16 -10 -5 -14 -3 -25 4 -27 7 -2 6 -9 -4 -19 -8 -8 -15 -32
-15 -53 0 -31 5 -43 24 -56 14 -8 26 -27 28 -42 5 -42 63 -55 253 -56 236 -1
431 30 520 84 57 35 141 61 240 75 163 23 228 35 260 50 16 7 43 17 60 22 29
9 63 57 80 113 6 19 -3 13 -42 -28 -35 -38 -54 -51 -66 -46 -11 4 -17 1 -17
-7 0 -8 -25 -24 -55 -35 -46 -19 -56 -20 -66 -8 -15 18 -29 18 -29 0 0 -30
-85 -36 -130 -9 -27 15 -31 15 -75 -2 -26 -9 -76 -40 -112 -67 -69 -53 -128
-83 -144 -72 -5 3 -16 1 -23 -5 -18 -15 -158 -32 -171 -21 -7 6 -16 5 -24 -3
-12 -12 -131 -15 -185 -4 -107 21 -176 42 -208 63 -47 30 -49 47 -5 39 157
-28 251 -33 340 -19 51 8 124 19 162 24 108 16 133 25 312 111 119 57 201 89
282 110 129 33 195 64 199 95 2 16 9 20 31 16 21 -3 33 2 45 19 21 30 11 38
-14 12 -39 -42 -67 -14 -69 69 -1 20 -5 40 -11 43 -5 3 -10 16 -9 28 1 20 2
20 8 -3 4 -14 13 -25 21 -25 16 0 21 54 7 73 -6 7 -11 25 -12 40 -1 15 -6 44
-10 65 -5 24 -3 42 5 52 15 18 3 58 -16 51 -9 -3 -14 1 -14 13 0 23 -29 49
-69 61 -28 8 -33 6 -45 -18 -8 -15 -19 -46 -26 -69 -10 -32 -15 -39 -25 -30
-7 7 -11 16 -8 20 3 5 7 38 9 74 2 35 6 69 9 73 3 5 0 12 -6 16 -9 5 -7 11 6
20 15 11 16 19 7 54 -5 22 -6 42 -1 45 4 3 6 12 3 20 -3 7 2 25 11 38 20 32
22 80 4 113 -11 22 -11 27 1 34 12 8 12 10 1 10 -11 0 -11 4 2 23 12 19 13 27
2 47 -13 25 -9 54 6 44 5 -3 9 0 9 5 0 16 -20 13 -26 -4 -4 -8 -11 -12 -17 -8
-6 3 -7 1 -3 -5 4 -7 2 -12 -5 -12 -9 0 -9 -3 0 -14 9 -11 9 -19 -1 -35 -7
-12 -16 -21 -20 -21 -9 0 -4 -27 7 -37 4 -4 5 -2 1 4 -4 7 -5 13 -1 13 12 0
22 -45 11 -52 -17 -12 -28 -9 -20 4 4 7 3 8 -5 4 -6 -4 -9 -12 -6 -17 4 -5 1
-9 -5 -9 -6 0 -9 -4 -6 -9 9 -14 -30 -42 -50 -35 -16 5 -16 4 -4 -5 13 -9 11
-12 -8 -17 -18 -5 -20 -9 -10 -16 10 -7 10 -11 -4 -22 -20 -15 -24 -36 -7 -36
5 0 7 6 3 13 -4 6 -3 8 1 4 17 -15 14 -36 -3 -30 -13 5 -14 3 -5 -7 6 -7 9
-19 6 -26 -3 -8 2 -17 11 -20 9 -4 24 -20 32 -36 9 -18 21 -28 29 -24 9 3 12
0 8 -10 -3 -7 -9 -14 -14 -14 -17 0 -9 -15 14 -25 25 -12 28 -59 4 -79 -8 -6
-17 -18 -20 -26 -3 -9 -6 -6 -6 8 -1 21 -2 22 -17 8 -8 -9 -19 -16 -24 -16 -5
0 -7 -6 -4 -14 4 -11 0 -13 -17 -9 -17 5 -20 3 -14 -7 5 -7 4 -11 -1 -8 -5 4
-8 35 -8 70 1 34 -2 71 -7 81 -7 12 -6 17 3 17 9 0 9 3 0 12 -20 20 -14 40 10
36 15 -2 24 3 26 14 2 11 -3 18 -13 18 -12 0 -14 4 -6 19 8 15 7 20 -6 25 -9
4 -13 9 -10 12 3 3 -6 22 -19 41 -24 35 -31 59 -16 49 4 -2 12 7 19 20 8 18 8
24 0 24 -7 0 -5 5 3 10 12 7 8 10 -14 10 -28 0 -28 1 -11 14 11 8 16 19 12 30
-4 9 -1 16 6 16 8 0 6 4 -3 10 -12 8 -12 10 -1 10 9 0 6 7 -9 20 -13 11 -18
20 -11 20 7 0 9 4 6 10 -7 12 7 13 21 3 5 -5 1 0 -9 10 -18 15 -18 17 -2 17
16 0 15 2 -2 18 -10 9 -13 13 -6 8 19 -12 16 9 -3 28 -14 15 -14 16 0 16 9 0
16 -4 16 -10 0 -5 11 -9 25 -8 21 2 25 8 25 33 0 17 -6 37 -12 44 -8 9 -9 12
-1 7 7 -4 9 1 6 14 -5 19 -6 19 -18 4 -9 -14 -14 -14 -20 -4 -5 9 -4 11 3 6 7
-4 12 -3 12 2 0 22 -29 20 -33 -1 -3 -14 -5 -9 -6 14 0 19 -6 40 -13 47 -8 8
-8 12 -1 12 6 0 13 7 16 14 4 10 1 13 -8 10 -10 -4 -13 0 -10 16 2 13 0 31 -5
41 -7 11 -7 20 0 24 5 3 6 13 3 22 -4 11 -3 14 5 9 7 -4 12 -2 12 4 0 7 6 10
13 7 6 -2 11 -10 9 -16 -1 -6 3 -11 9 -11 5 0 8 -4 4 -9 -8 -13 30 -32 49 -25
14 5 14 8 1 21 -9 8 -13 19 -10 24 4 5 0 9 -7 9 -9 0 -9 3 2 10 13 8 12 10 -2
10 -21 0 -23 -13 -7 -42 6 -11 8 -22 5 -25 -4 -4 -36 60 -36 72 0 2 11 6 25 9
30 8 33 32 4 41 -16 5 -18 10 -8 21 6 8 19 14 28 14 12 0 13 2 3 9 -7 4 -14
17 -15 29 -1 16 -5 19 -18 11 -14 -7 -17 -5 -16 11 1 11 6 20 12 20 5 0 -1 9
-15 20 -14 10 -21 22 -18 26 4 4 0 13 -10 20 -10 8 -12 13 -4 14 6 0 12 5 12
11 0 6 -6 9 -13 6 -8 -3 -14 1 -14 9 0 8 7 13 16 12 9 -2 16 -13 15 -26 0 -12
3 -22 7 -22 5 0 8 16 7 35 -1 19 -4 32 -8 30 -9 -6 -44 26 -48 43 -4 21 14 13
26 -11 7 -14 11 -16 11 -7 1 8 8 28 16 44 9 17 12 32 6 35 -15 9 -16 44 -3 68
10 18 10 22 0 18 -7 -3 -19 4 -26 15 -10 17 -10 20 5 20 15 0 15 1 1 13 -19
14 -7 57 16 57 21 0 27 26 32 125 2 50 4 90 4 90 1 0 3 15 4 33 2 17 -1 32 -6
32 -5 0 -6 5 -3 10 4 6 13 7 23 1 9 -4 23 -6 30 -4 7 3 20 2 30 -2 14 -5 14
-7 2 -15 -12 -8 -12 -10 -1 -10 7 0 11 -6 8 -14 -3 -8 0 -16 7 -19 9 -4 12 20
12 94 0 54 2 101 6 104 4 4 14 3 24 -3 11 -6 13 -11 5 -16 -6 -4 -11 -2 -11 5
0 7 -3 10 -6 7 -6 -7 31 -84 46 -93 14 -9 13 48 -2 80 -9 20 -9 28 1 38 9 9
14 9 22 -3 9 -13 10 -13 7 0 -4 25 12 122 27 170 21 66 46 256 39 300 -5 33
-4 38 12 37 16 -2 20 7 25 53 7 63 25 124 47 158 15 23 15 24 -24 18 l-39 -6
36 18 c73 36 90 62 160 260 35 99 46 121 60 117 23 -8 34 34 12 50 -23 17 -4
71 25 68 11 -1 23 4 26 12 4 10 -1 15 -14 15 -16 0 -20 7 -20 30 0 25 4 30 25
30 20 0 25 -5 25 -25 0 -14 5 -25 11 -25 6 0 8 7 5 16 -3 9 -6 22 -6 30 0 8
-10 14 -25 14 -14 0 -25 5 -25 10 0 6 7 10 16 8 10 -2 19 3 21 10 3 6 -2 12
-11 12 -9 0 -16 5 -16 11 0 6 9 8 20 4 12 -4 20 -2 20 5 0 7 -8 14 -19 17 -16
4 -18 12 -13 51 3 25 10 69 17 97 l11 50 36 -55 c39 -60 128 -230 128 -244 0
-5 -7 -3 -15 4 -8 7 -15 9 -15 4 0 -5 -9 9 -19 31 -10 22 -26 49 -36 60 -16
19 -16 19 -10 -18 4 -23 2 -44 -5 -52 -8 -10 -9 -19 -1 -32 10 -17 10 -17 11
1 0 14 3 16 13 8 6 -6 15 -10 20 -10 26 0 88 -15 93 -23 3 -5 16 -7 30 -5 13
3 30 -1 36 -8 7 -7 31 -12 53 -11 22 1 47 -5 56 -12 14 -12 19 -11 34 3 9 10
12 20 7 23 -5 3 -8 21 -7 39 2 18 -1 35 -6 38 -5 3 -7 10 -4 15 4 5 -1 9 -10
9 -15 0 -14 3 1 29 10 16 27 34 38 41 19 10 19 10 1 4 -11 -4 -32 -7 -47 -6
-30 1 -93 30 -85 39 3 2 14 0 25 -6 43 -23 77 -13 113 30 41 50 85 150 94 213
7 42 6 46 -14 46 -11 0 -21 5 -21 11 0 7 9 9 21 6 21 -6 21 -4 17 111 -3 91
-9 128 -26 165 -19 44 -20 47 -3 47 34 0 81 -81 83 -141 1 -16 4 -27 7 -24 12
7 12 -168 1 -245 -6 -41 -23 -98 -37 -127 l-26 -52 32 -38 c49 -59 52 -63 46
-63 -3 0 3 -10 14 -22 11 -11 18 -25 15 -30 -11 -17 52 18 72 41 17 20 29 24
79 22 32 0 63 -6 70 -11 7 -6 37 -17 66 -26 30 -9 56 -19 59 -23 23 -33 120
-47 120 -17 0 9 17 11 59 8 58 -4 59 -4 100 38 39 40 58 76 26 50 -13 -10 -15
-9 -15 9 0 11 4 21 8 21 11 0 52 118 52 150 0 39 11 71 24 67 20 -7 9 -102
-18 -160 -32 -68 -33 -75 -1 -41 38 41 60 125 59 224 0 47 -6 94 -12 105 -10
18 -11 18 -12 3 0 -10 -5 -18 -10 -18 -7 0 -7 -7 1 -21 8 -15 8 -19 0 -15 -13
9 -14 0 -2 -22 6 -11 4 -21 -5 -30 -12 -11 -14 -5 -14 35 0 26 -7 76 -15 111
-43 182 -134 220 -239 100 l-45 -51 -16 39 c-14 33 -31 87 -72 227 -3 9 -9 17
-14 18 -38 3 -77 1 -88 -5 -6 -4 -24 -5 -40 -1 -17 3 -32 2 -36 -4 -9 -15 -50
-14 -62 2 -5 6 -18 35 -28 62 -10 28 -46 102 -80 165 -103 190 -183 355 -200
410 -4 14 -13 32 -20 40 -7 8 -15 28 -19 44 -4 16 -18 45 -32 65 -13 19 -24
43 -24 52 0 9 -7 22 -15 29 -8 7 -15 16 -15 21 0 5 -12 33 -26 62 -14 28 -28
77 -31 107 -3 30 -14 69 -24 86 -11 17 -19 37 -19 43 0 17 39 4 67 -21 12 -12
27 -17 34 -13 8 5 10 4 5 -3 -4 -7 -1 -12 7 -12 16 0 50 -34 42 -42 -3 -3 3
-8 14 -11 14 -3 21 2 26 20 4 19 -2 33 -29 63 -19 21 -40 49 -47 62 -11 21
-37 46 -49 46 -12 -1 -70 57 -70 69 0 7 -4 13 -10 13 -5 0 -7 6 -4 14 3 8 1
17 -5 20 -6 4 -7 14 -4 23 5 12 3 14 -7 8 -10 -6 -12 -4 -7 9 4 10 7 27 7 39
0 18 2 19 11 7 14 -20 2 23 -18 67 -8 18 -12 36 -9 41 3 6 0 15 -8 21 -8 7
-12 20 -9 30 3 10 -5 38 -16 62 -12 23 -21 50 -21 59 0 9 -4 20 -9 26 -13 14
-30 176 -30 279 0 50 -5 115 -11 145 -18 91 -24 224 -11 249 15 27 31 27 31 1
0 -11 4 -20 9 -20 11 0 31 55 31 85 0 12 16 40 35 63 20 22 34 46 33 53 -2 7
15 18 37 25 l40 12 -29 7 c-16 4 -44 3 -64 -3 -20 -6 -38 -10 -40 -8 -2 2 13
16 32 31 31 24 42 26 81 20 25 -3 62 -13 82 -22 34 -14 38 -14 50 4 41 60 50
58 119 -27 31 -39 82 -87 113 -108 31 -20 58 -40 59 -44 2 -5 12 -12 21 -18
16 -8 17 -5 11 37 l-7 46 18 -24 c18 -23 18 -23 1 21 -13 36 -17 79 -17 206
l0 162 -33 -29 c-69 -61 -190 -27 -263 73 -43 59 -69 113 -69 140 1 20 2 21
13 7 7 -9 18 -14 25 -11 7 2 36 -5 65 -16 60 -24 126 -38 114 -26 -5 5 -23 14
-40 20 -18 6 -32 15 -32 19 0 11 85 13 92 2 3 -4 11 -3 18 3 8 7 19 9 26 5 6
-4 15 -1 21 6 7 11 8 10 6 -4 -2 -10 -6 -18 -11 -17 -4 0 -14 -5 -22 -12 -12
-11 -11 -15 3 -26 16 -12 16 -14 -3 -29 -18 -14 -18 -15 -2 -9 10 3 23 6 27 6
5 0 25 21 45 46 32 43 39 44 36 4 -1 -8 10 6 23 31 18 33 33 48 51 52 24 4 26
2 20 -22 -3 -14 -18 -43 -33 -65 -61 -87 -71 -108 -61 -133 5 -13 9 -42 9 -64
0 -22 7 -53 15 -68 8 -16 14 -44 13 -63 -1 -38 31 -117 69 -166 16 -22 50 -46
90 -63 58 -27 80 -42 51 -37 -7 2 -13 -5 -13 -16 0 -12 -15 -25 -45 -37 -38
-16 -40 -18 -12 -13 40 7 41 -1 1 -21 -24 -13 -34 -14 -45 -4 -11 9 -14 8 -14
-4 0 -20 47 -57 72 -57 11 0 17 4 14 9 -3 4 6 13 21 20 21 10 28 9 34 -1 6 -9
12 -3 22 20 7 18 16 29 20 25 11 -10 8 26 -3 46 -6 13 -5 24 5 37 14 19 14 18
15 -1 1 -20 1 -20 15 -1 23 30 19 93 -7 114 -64 51 -93 84 -79 89 8 3 29 20
47 37 l32 30 -21 31 c-26 36 -32 75 -11 75 8 0 14 5 14 10 0 6 -6 10 -13 10
-16 0 -77 91 -77 114 0 10 4 15 9 11 5 -3 13 0 16 6 5 7 20 -1 44 -23 20 -18
45 -41 56 -50 20 -16 21 -16 22 5 4 52 -98 207 -117 177 -5 -8 -15 -10 -26 -6
-14 5 -15 9 -6 15 7 4 10 15 6 24 -9 23 5 21 33 -5 l23 -22 -6 35 c-7 36 -64
123 -64 98 0 -12 -2 -12 -10 1 -5 8 -10 26 -10 39 0 24 0 24 -21 5 -20 -18
-20 -18 -13 11 4 17 10 37 15 45 7 12 9 11 9 -5 1 -18 2 -18 10 -3 16 26 15
173 0 183 -5 3 -7 12 -4 20 3 8 -1 28 -10 46 -8 17 -27 75 -41 128 -55 210
-154 344 -290 394 -60 23 -97 29 -104 18 -4 -6 -23 -6 -51 -1 -62 12 -168 12
-175 0z m335 -70 c0 -5 -5 -10 -11 -10 -5 0 -7 5 -4 10 3 6 8 10 11 10 2 0 4
-4 4 -10z m-21 -218 c-7 -9 -9 -14 -4 -9 5 4 14 -6 21 -22 10 -24 23 -33 68
-46 70 -21 96 -51 96 -114 0 -35 5 -49 20 -59 11 -7 20 -17 20 -22 0 -6 -33
-27 -74 -47 -72 -36 -75 -38 -69 -67 8 -44 17 -50 54 -37 39 13 52 14 44 2 -7
-12 26 -31 54 -31 24 0 29 -6 37 -57 5 -36 3 -45 -23 -71 l-29 -31 -47 40
c-51 44 -62 39 -21 -10 14 -17 28 -46 31 -64 4 -28 2 -35 -15 -39 -18 -5 -20
-2 -15 28 6 34 -12 49 -23 20 -6 -17 -62 -42 -71 -32 -3 3 -1 6 5 6 19 0 14
28 -7 39 -22 12 -91 12 -91 0 0 -4 16 -20 35 -35 51 -39 46 -51 -22 -49 -100
3 -113 5 -113 18 0 7 23 39 52 71 53 60 44 62 -26 7 -41 -33 -76 -39 -95 -17
-6 7 -12 45 -14 82 -2 68 -2 69 23 67 23 -3 24 -2 7 11 -17 13 -17 14 0 21 10
4 52 9 93 12 82 5 96 12 102 48 6 30 -22 41 -131 55 -41 6 -76 12 -78 14 -3 2
0 13 6 24 15 28 14 60 -5 115 -21 62 -11 76 81 120 41 20 78 44 81 52 4 8 12
15 19 15 7 0 13 6 12 13 0 6 1 21 2 32 2 17 4 15 13 -8 7 -20 6 -32 -3 -45z
m108 42 c-3 -3 -12 -4 -19 -1 -8 3 -5 6 6 6 11 1 17 -2 13 -5z m-257 -409 c11
-13 7 -15 -29 -15 -30 0 -41 4 -41 15 0 10 10 15 29 15 16 0 34 -7 41 -15z
m-479 -108 c-8 -8 -11 -7 -11 4 0 20 13 34 18 19 3 -7 -1 -17 -7 -23z m916
-39 c-3 -8 -6 -5 -6 6 -1 11 2 17 5 13 3 -3 4 -12 1 -19z m-847 -49 c0 -11 -4
-17 -10 -14 -5 3 -10 13 -10 21 0 8 5 14 10 14 6 0 10 -9 10 -21z m-80 -29 c0
-10 4 -21 9 -24 4 -3 6 -17 4 -31 -3 -13 -9 -22 -14 -19 -5 3 -14 -5 -19 -18
-8 -17 -9 -11 -3 27 3 28 6 60 6 72 -1 13 3 20 8 17 5 -3 9 -14 9 -24z m762
-127 c-5 -24 -6 -25 -12 -8 -8 21 -4 35 9 35 5 0 6 -12 3 -27z m-835 -15 c-3
-8 -6 -5 -6 6 -1 11 2 17 5 13 3 -3 4 -12 1 -19z m1084 -65 c13 -16 12 -17 -3
-4 -10 7 -18 15 -18 17 0 8 8 3 21 -13z m-711 -123 c0 -5 -4 -10 -9 -10 -5 0
-16 -3 -25 -6 -9 -3 -16 -1 -16 4 0 9 16 17 43 21 4 0 7 -3 7 -9z m760 -209
c0 -5 -7 -14 -15 -21 -12 -10 -19 -10 -28 -1 -9 9 -9 14 3 21 19 12 40 13 40
1z m-30 -336 c-7 -8 -22 -15 -34 -15 -20 1 -20 2 4 15 33 19 46 19 30 0z
m-2010 -425 c8 -5 12 -12 8 -15 -10 -10 -49 5 -43 16 8 11 16 11 35 -1z m154
-65 c19 -14 26 -51 26 -144 1 -65 -6 -78 -48 -84 -41 -7 -111 1 -128 15 -6 4
-18 6 -26 3 -11 -4 -18 2 -22 19 -11 44 7 64 64 73 14 2 36 6 49 9 22 5 22 6
6 23 -10 12 -12 21 -6 25 6 4 8 13 4 21 -3 9 1 15 10 15 10 0 13 7 10 20 -4
16 0 20 18 20 13 0 33 -7 43 -15z m39 -629 c6 -16 -2 -28 -14 -20 -12 7 -11
34 0 34 5 0 11 -6 14 -14z m109 -640 c13 -18 9 -36 -8 -36 -8 0 -13 -3 -11 -7
7 -11 -14 -27 -39 -31 -12 -1 -40 1 -63 7 -26 5 -41 5 -41 -1 0 -5 -4 -6 -10
-3 -5 3 -10 13 -10 21 0 11 6 14 23 9 17 -5 18 -4 7 4 -19 13 -13 18 47 34 63
16 96 17 105 3z m-41 -119 c-10 -9 -11 -8 -5 6 3 10 9 15 12 12 3 -3 0 -11 -7
-18z m-25 -32 c-10 -8 -23 -12 -28 -9 -14 9 2 24 25 24 21 -1 21 -1 3 -15z
m-153 -37 c-6 -12 -81 -10 -88 2 -4 6 13 9 43 7 28 -1 48 -5 45 -9z m-460
-153 c-3 -9 -8 -14 -10 -11 -3 3 -2 9 2 15 9 16 15 13 8 -4z m97 -77 c0 -6 -9
-30 -19 -52 -21 -46 -39 -131 -22 -106 6 8 11 11 11 5 0 -18 -48 -209 -64
-250 -17 -45 -21 -20 -6 35 5 19 12 55 15 80 4 25 16 90 27 145 11 55 23 112
25 128 5 26 33 39 33 15z m13 -123 c-3 -9 -8 -14 -10 -11 -3 3 -2 9 2 15 9 16
15 13 8 -4z m202 -267 c-6 -58 -58 -352 -72 -406 -3 -13 -7 -21 -10 -18 -3 2
3 41 12 86 9 45 14 92 11 105 -3 13 -1 27 5 30 6 4 8 14 5 22 -4 9 -2 21 3 27
5 6 13 36 16 66 6 52 5 54 -10 35 -16 -20 -55 -137 -76 -232 -7 -29 -16 -53
-20 -53 -13 0 77 315 107 373 25 47 37 33 29 -35z m1795 -48 c0 -11 -2 -20 -4
-20 -2 0 -6 9 -9 20 -3 11 -1 20 4 20 5 0 9 -9 9 -20z m-268 -30 c-5 -37 -22
-29 -22 10 0 20 4 28 13 24 9 -3 12 -16 9 -34z m125 -2 c-3 -8 -6 -5 -6 6 -1
11 2 17 5 13 3 -3 4 -12 1 -19z m-250 -24 c-10 -21 -17 -24 -41 -20 -16 4 -38
6 -49 6 -32 0 -8 18 38 29 64 15 65 14 52 -15z m273 -8 c0 -7 -9 -16 -20 -19
-17 -4 -18 -2 -9 14 11 22 29 25 29 5z m-478 -12 c13 -3 41 -7 63 -9 22 -1 63
-6 90 -9 28 -4 68 -9 89 -11 22 -3 44 -9 51 -15 6 -5 26 -7 44 -5 32 4 32 4
18 -18 -8 -13 -17 -32 -20 -42 -4 -19 -5 -18 -6 1 -1 16 -9 23 -31 26 -30 4
-52 -6 -29 -14 20 -7 -1 -56 -27 -61 -13 -2 -24 0 -24 6 0 5 -7 4 -15 -3 -8
-7 -15 -8 -15 -3 0 5 -13 9 -30 8 -16 -1 -30 1 -30 4 0 3 -22 6 -50 5 -27 0
-50 3 -50 8 0 4 -6 5 -12 3 -7 -3 -18 -1 -24 3 -13 9 -28 75 -14 67 5 -3 25
-6 45 -7 19 -1 35 -5 35 -9 0 -5 7 -6 15 -3 9 4 15 0 15 -7 0 -11 3 -11 11 1
8 12 12 12 16 2 4 -10 8 -10 19 -1 10 8 14 8 14 1 0 -6 7 -9 15 -6 9 4 15 1
15 -7 0 -10 3 -10 12 -1 7 7 16 8 23 2 12 -10 44 5 33 16 -4 4 -27 8 -50 9
-24 2 -43 4 -43 5 0 1 -16 3 -35 5 -19 1 -51 6 -70 9 -19 4 -44 7 -55 9 -11 1
-23 7 -27 12 -11 15 -9 47 2 40 5 -3 20 -9 32 -11z m446 -24 c19 0 21 -29 3
-52 -10 -13 -21 -30 -24 -38 -3 -8 -6 0 -6 18 -1 18 -5 31 -9 28 -5 -3 -8 15
-8 40 1 44 2 44 18 24 9 -11 21 -20 26 -20z m-58 -6 c0 -2 -7 -4 -15 -4 -8 0
-15 4 -15 10 0 5 7 7 15 4 8 -4 15 -8 15 -10z m-1541 -70 c-14 -81 -19 -95
-30 -89 -19 12 -3 108 24 143 16 20 18 9 6 -54z m2009 21 c7 -13 14 -14 35 -6
15 6 34 8 42 5 8 -4 21 -2 28 4 19 16 64 2 76 -24 8 -17 19 -24 40 -24 32 0
41 -14 41 -63 0 -38 -34 -97 -55 -97 -13 0 -14 10 -9 58 3 31 7 62 9 69 2 7 0
15 -5 18 -6 4 -10 -12 -10 -37 0 -56 -22 -88 -61 -88 -17 0 -42 -6 -57 -14
-33 -16 -146 -14 -167 4 -8 7 -15 19 -15 26 0 10 -7 13 -25 8 -32 -8 -65 19
-65 52 0 34 44 79 92 93 24 7 52 17 63 21 29 12 33 12 43 -5z m-548 -30 c10
-12 10 -15 -4 -15 -9 0 -16 7 -16 15 0 8 2 15 4 15 2 0 9 -7 16 -15z m901 -14
c7 -21 18 -31 35 -33 30 -4 27 -23 -3 -23 -18 1 -23 -5 -24 -25 -1 -15 -5 -7
-10 20 -5 25 -11 55 -14 68 -8 32 4 27 16 -7z m-881 -21 c0 -5 -4 -10 -10 -10
-5 0 -10 5 -10 10 0 6 5 10 10 10 6 0 10 -4 10 -10z m838 -2 c18 -18 15 -28
-8 -28 -13 0 -20 7 -20 20 0 23 10 26 28 8z m-2453 -54 c-24 -37 -29 -23 -9
22 13 29 18 34 21 21 3 -10 -3 -29 -12 -43z m375 35 c0 -5 -4 -9 -8 -9 -5 0
-9 7 -9 15 0 8 4 12 9 9 4 -3 8 -9 8 -15z m1375 10 c11 -17 -1 -21 -15 -4 -8
9 -8 15 -2 15 6 0 14 -5 17 -11z m-97 -32 c4 -20 -9 -22 -26 -5 -17 17 -15 27
6 24 9 -2 18 -10 20 -19z m223 -10 c-8 -8 -11 -7 -11 4 0 20 13 34 18 19 3 -7
-1 -17 -7 -23z m-146 -19 c6 -4 0 -8 -12 -8 -16 0 -21 4 -16 15 3 9 8 12 12 8
3 -4 11 -11 16 -15z m-1385 2 c0 -5 -5 -10 -11 -10 -5 0 -7 5 -4 10 3 6 8 10
11 10 2 0 4 -4 4 -10z m1280 -10 c0 -5 -4 -10 -10 -10 -5 0 -10 5 -10 10 0 6
5 10 10 10 6 0 10 -4 10 -10z m-437 -85 c-3 -11 -8 -36 -9 -55 -5 -55 -7 -59
-16 -54 -4 3 -8 -3 -8 -13 -1 -16 -2 -16 -10 -2 -9 15 -1 95 16 169 l6 25 13
-25 c8 -14 11 -34 8 -45z m367 57 c0 -5 -7 -17 -15 -28 -14 -18 -14 -17 -4 9
12 27 19 34 19 19z m-1573 -32 c26 0 7 -25 -20 -26 -20 -1 -27 4 -27 19 0 13
5 17 16 13 9 -3 22 -6 31 -6z m190 -62 c-3 -8 -6 -5 -6 6 -1 11 2 17 5 13 3
-3 4 -12 1 -19z m91 -12 c5 -10 10 -76 5 -76 -1 0 -13 4 -26 9 -20 8 -27 6
-31 -5 -9 -23 -7 -31 10 -48 14 -15 14 -16 -3 -15 -43 1 -56 21 -41 59 4 8 9
32 13 53 5 34 8 37 36 35 17 -1 33 -7 37 -12z m1842 -12 c0 -2 -9 0 -20 6 -11
6 -20 13 -20 16 0 2 9 0 20 -6 11 -6 20 -13 20 -16z m146 16 c8 0 14 -4 14
-10 0 -5 -13 -10 -30 -10 -21 0 -30 5 -30 16 0 11 5 14 16 10 9 -3 22 -6 30
-6z m203 -53 c1 -5 -3 -5 -9 -2 -5 3 -10 16 -9 28 0 21 1 21 9 2 5 -11 9 -24
9 -28z m-2303 -54 c-14 -26 -15 -26 -16 -6 0 12 5 25 10 28 6 3 11 16 11 28
l2 22 4 -22 c2 -12 -3 -34 -11 -50z m-211 -150 c-20 -76 -49 -175 -64 -221
-29 -88 -26 -107 17 -95 19 4 22 1 22 -21 0 -35 -33 -35 -65 0 -31 33 -31 56
-5 227 22 141 54 292 44 207 -3 -25 -12 -88 -20 -140 -7 -52 -14 -111 -14
-130 l1 -35 14 26 c13 25 46 134 83 278 9 34 18 58 20 53 2 -6 -13 -73 -33
-149z m-5 104 c-1 -12 -7 -44 -15 -72 l-14 -50 0 46 c-1 59 9 110 20 103 5 -3
9 -15 9 -27z m994 12 c6 -5 15 -4 23 2 10 9 13 8 13 -5 0 -9 5 -16 10 -16 18
0 10 -18 -10 -23 -13 -3 -20 0 -20 10 0 25 -17 5 -24 -28 -4 -24 -9 -29 -18
-21 -7 5 -24 12 -38 14 -22 3 -25 8 -27 46 l-2 44 42 -7 c23 -4 46 -11 51 -16z
m83 -51 c-3 -8 -6 -5 -6 6 -1 11 2 17 5 13 3 -3 4 -12 1 -19z m40 -20 c-3 -7
-5 -2 -5 12 0 14 2 19 5 13 2 -7 2 -19 0 -25z m-672 -18 c9 -15 -6 -60 -20
-60 -9 0 -12 11 -10 33 2 17 4 33 4 35 2 6 20 1 26 -8z m502 -27 c15 -22 14
-22 -24 -17 -62 9 -67 12 -52 30 17 21 59 14 76 -13z m-231 -28 c-4 -14 -11
-25 -16 -25 -5 0 -5 13 2 31 12 35 23 31 14 -6z m273 -9 c-9 -8 -10 -7 -5 7 3
10 7 24 7 30 1 7 3 4 6 -7 3 -10 -1 -23 -8 -30z m218 -3 c-3 -10 -8 -31 -12
-47 -3 -15 -8 -26 -11 -23 -6 6 14 87 22 87 3 0 3 -8 1 -17z m-1395 -725 c-7
-7 -10 -5 -7 8 5 29 6 30 12 16 3 -8 1 -18 -5 -24z m833 -1168 c3 -5 1 -10 -4
-10 -6 0 -11 5 -11 10 0 6 2 10 4 10 3 0 8 -4 11 -10z m-28 -22 c2 -18 0 -20
-7 -8 -12 18 -13 30 -2 30 4 0 9 -10 9 -22z m37 -230 c-3 -5 -10 -6 -15 -3 -5
4 -9 1 -9 -4 0 -6 -5 -11 -11 -11 -8 0 -8 4 0 13 12 15 44 19 35 5z m30 -32
c9 3 16 1 16 -5 0 -6 -5 -11 -11 -11 -5 0 -7 -4 -4 -10 12 -19 -1 -10 -26 17
-13 15 -17 22 -8 15 9 -7 24 -10 33 -6z m-24 -120 c0 -2 -7 -6 -15 -10 -8 -3
-15 -1 -15 4 0 6 7 10 15 10 8 0 15 -2 15 -4z m14 -301 c-4 -8 -8 -15 -10 -15
-2 0 -4 7 -4 15 0 8 4 15 10 15 5 0 7 -7 4 -15z m-274 -284 c15 -28 12 -86 -5
-129 -21 -49 -35 -28 -35 55 0 88 16 118 40 74z m380 -161 c0 -5 -4 -10 -9
-10 -6 0 -13 5 -16 10 -3 6 1 10 9 10 9 0 16 -4 16 -10z m-401 -87 c0 -25 -1
-26 -9 -8 -12 27 -12 35 0 35 6 0 10 -12 9 -27z m-94 -43 c-16 -16 -33 -30
-39 -30 -5 0 3 14 19 30 16 17 33 30 39 30 5 0 -3 -13 -19 -30z m-30 -60 c-3
-5 -12 -10 -18 -10 -7 0 -6 4 3 10 19 12 23 12 15 0z m100 -39 c-6 -39 -20
-59 -32 -47 -3 3 2 17 11 30 9 14 16 35 16 47 0 12 3 20 6 16 3 -3 3 -24 -1
-46z m165 -45 c58 -46 112 -91 119 -100 12 -14 10 -16 -10 -16 l-24 -1 25 -13
c14 -8 49 -30 79 -50 102 -69 165 -42 196 84 9 38 23 74 31 81 20 17 30 3 11
-15 -8 -9 -18 -39 -22 -68 -9 -69 -28 -114 -53 -127 -12 -6 -44 -11 -71 -11
-43 0 -60 6 -111 41 -78 53 -122 60 -173 25 -27 -19 -43 -24 -54 -17 -14 8
-14 10 5 22 24 15 29 29 11 29 -14 0 -106 71 -113 88 -3 7 -3 40 1 72 5 52 9
60 27 60 12 0 68 -38 126 -84z m-245 14 c10 -11 16 -20 13 -20 -3 0 -13 9 -23
20 -10 11 -16 20 -13 20 3 0 13 -9 23 -20z m25 -105 c0 -9 -9 -15 -21 -15 -18
0 -19 2 -9 15 7 8 16 15 21 15 5 0 9 -7 9 -15z m-3 -51 c-7 -7 -37 7 -37 17 0
6 9 5 21 -1 11 -7 19 -14 16 -16z m-27 -13 c0 -5 -7 -11 -15 -15 -15 -5 -20 5
-8 17 9 10 23 9 23 -2z m169 -55 c7 -8 8 -17 3 -20 -6 -3 -12 3 -15 14 -6 24
-4 25 12 6z m-122 -68 c-2 -13 -4 -3 -4 22 0 25 2 35 4 23 2 -13 2 -33 0 -45z
m-122 12 c-3 -5 -12 -10 -18 -10 -7 0 -6 4 3 10 19 12 23 12 15 0z m-7 -87 c6
-18 9 -33 7 -33 -6 0 -42 66 -48 90 l-6 25 18 -24 c10 -14 23 -39 29 -58z
m-101 -15 c-3 -8 -6 -5 -6 6 -1 11 2 17 5 13 3 -3 4 -12 1 -19z m-27 -72 c-13
-13 -35 7 -25 24 5 8 11 8 21 -1 10 -8 12 -15 4 -23z m-54 4 c0 -11 -3 -20 -7
-20 -10 0 -19 27 -12 34 12 11 19 6 19 -14z m120 -27 c-7 -8 -56 9 -51 18 3 4
17 3 30 -3 14 -6 23 -13 21 -15z m302 -9 c-4 -3 -12 5 -18 18 -12 22 -12 22 6
6 10 -10 15 -20 12 -24z m-248 11 c0 -9 -6 -12 -15 -9 -8 4 -12 10 -9 15 8 14
24 10 24 -6z m64 -104 c-15 -23 -29 -39 -31 -37 -3 2 8 23 23 45 15 23 29 39
31 37 3 -2 -8 -23 -23 -45z m419 -88 c-7 -2 -21 -2 -30 0 -10 3 -4 5 12 5 17
0 24 -2 18 -5z"/>
<path d="M4157 4891 c-4 -17 -3 -21 5 -13 5 5 8 16 6 23 -3 8 -7 3 -11 -10z"/>
<path d="M3980 4891 c0 -6 4 -13 10 -16 6 -3 7 1 4 9 -7 18 -14 21 -14 7z"/>
<path d="M1865 9350 c-3 -5 -3 -10 1 -10 4 0 -1 -8 -10 -19 -16 -17 -16 -19 2
-23 27 -7 95 5 94 17 0 5 -17 14 -37 20 -20 5 -33 13 -29 18 4 4 2 7 -4 7 -6
0 -14 -4 -17 -10z"/>
<path d="M2136 9350 c-44 -8 -66 -31 -66 -70 0 -27 27 -60 49 -60 6 0 23 -12
36 -27 20 -24 31 -28 74 -28 27 0 55 5 60 10 7 7 -3 9 -31 7 -25 -3 -38 -1
-34 6 3 5 -1 15 -9 22 -8 7 -15 18 -15 24 0 6 5 3 11 -6 11 -19 45 -23 112
-11 26 4 36 10 33 19 -3 8 -2 14 3 14 11 0 23 44 16 62 -12 31 -158 54 -239
38z m127 -87 c-7 -2 -21 -2 -30 0 -10 3 -4 5 12 5 17 0 24 -2 18 -5z"/>
<path d="M1899 9278 c-1 -7 -1 -17 0 -22 1 -5 -6 -17 -15 -27 -18 -20 -9 -25
15 -10 16 10 41 4 41 -10 0 -5 -10 -9 -22 -9 -20 0 -21 -1 -3 -20 17 -19 17
-20 -6 -29 l-24 -10 27 0 c53 -2 73 14 85 64 9 42 9 49 -8 66 -22 22 -88 26
-90 7z"/>
<path d="M2707 9250 c-15 -12 -27 -26 -27 -31 0 -15 22 -10 43 8 18 17 20 17
39 -7 l20 -24 -4 34 c-4 43 -32 51 -71 20z"/>
<path d="M2671 9183 c-7 -13 -10 -14 -11 -3 0 10 -3 11 -10 4 -7 -7 -8 -28 -4
-53 5 -30 10 -39 18 -31 7 7 7 16 -1 29 -10 16 -7 17 28 17 44 -1 49 16 12 41
-19 13 -22 12 -32 -4z"/>
<path d="M2761 9121 c-1 -8 -13 -28 -28 -44 -16 -16 -22 -28 -14 -25 22 6 54
54 48 69 -4 11 -6 11 -6 0z"/>
<path d="M2635 9060 c-3 -5 -1 -10 4 -10 6 0 11 5 11 10 0 6 -2 10 -4 10 -3 0
-8 -4 -11 -10z"/>
<path d="M2156 9035 c-15 -8 -39 -15 -52 -15 -34 0 -114 -23 -114 -32 0 -4 12
-8 28 -9 l27 0 -22 -16 c-27 -18 -29 -30 -8 -54 15 -15 13 -17 -25 -17 -50 -1
-65 22 -31 47 l23 17 -23 39 c-15 24 -25 33 -27 24 -3 -8 -13 -25 -23 -38 -25
-31 -24 -50 6 -102 14 -24 25 -53 26 -64 0 -11 3 -14 6 -7 6 16 21 15 39 -3
18 -18 43 -18 106 -2 70 19 66 23 -17 19 l-75 -3 0 29 c0 24 4 30 23 30 12 -1
47 3 78 7 46 6 63 4 100 -14 l44 -20 22 25 c12 13 26 24 30 23 4 0 9 5 12 12
2 8 -2 10 -13 6 -9 -4 -16 -2 -16 4 0 6 10 9 23 7 18 -2 22 -9 20 -37 -1 -24
1 -30 8 -20 28 44 -1 93 -87 147 -59 37 -51 36 -88 17z m75 -50 c40 -37 45
-46 33 -56 -15 -12 -214 -20 -214 -8 0 3 15 16 33 29 17 13 43 36 56 52 13 15
28 28 34 28 5 0 31 -20 58 -45z"/>
<path d="M2338 8823 c-15 -48 -25 -90 -23 -92 3 -2 8 5 11 15 4 10 18 43 30
72 24 53 31 92 16 92 -4 0 -19 -39 -34 -87z"/>
<path d="M2165 8820 c-3 -5 -2 -10 4 -10 5 0 13 5 16 10 3 6 2 10 -4 10 -5 0
-13 -4 -16 -10z"/>
<path d="M2962 8615 c0 -16 2 -22 5 -12 2 9 2 23 0 30 -3 6 -5 -1 -5 -18z"/>
<path d="M3620 8445 c14 -8 32 -14 40 -15 23 0 -2 17 -35 24 l-30 6 25 -15z"/>
<path d="M2180 8331 c0 -5 -7 -17 -16 -26 -13 -12 -15 -26 -9 -63 l7 -47 19
24 c20 25 27 105 9 116 -5 3 -10 2 -10 -4z"/>
<path d="M4140 7738 c0 -9 5 -20 10 -23 13 -8 13 5 0 25 -8 13 -10 13 -10 -2z"/>
<path d="M4175 7664 c14 -33 52 -94 60 -94 9 0 -51 120 -62 124 -10 4 -9 -3 2
-30z"/>
<path d="M3762 7654 c-23 -54 -45 -87 -69 -110 -14 -13 -22 -27 -19 -33 4 -5
8 -46 10 -91 2 -45 6 -84 10 -87 3 -3 3 -31 1 -62 -3 -39 -2 -49 4 -31 5 14 9
50 10 80 1 36 8 68 21 90 43 73 70 136 70 160 0 24 -1 23 -17 -8 -21 -43 -24
-37 -12 20 6 26 9 59 7 74 l-3 27 -13 -29z"/>
<path d="M426 7618 c-120 -23 -246 -106 -314 -207 -128 -193 -118 -428 27
-621 147 -196 423 -255 652 -140 l60 31 44 -49 c61 -68 223 -198 335 -269 51
-32 106 -70 123 -86 18 -15 52 -35 77 -44 25 -9 70 -27 100 -41 30 -13 76 -33
103 -43 l48 -19 8 23 c5 12 12 47 16 77 4 34 21 82 46 126 l38 72 -19 68 c-11
38 -20 96 -21 129 -1 33 -5 71 -10 85 -7 22 -8 21 -6 -10 2 -32 0 -35 -29 -38
-19 -2 -41 -14 -56 -31 -26 -29 -42 -88 -25 -94 7 -2 6 -10 0 -22 -8 -14 -7
-25 5 -43 9 -14 18 -34 19 -45 2 -11 7 -25 12 -31 5 -6 5 -21 0 -33 -7 -19
-16 -21 -67 -22 -36 0 -67 6 -78 14 -11 8 -26 15 -35 15 -8 0 -51 18 -94 40
-43 22 -87 40 -97 40 -10 0 -18 5 -18 10 0 6 -7 10 -15 10 -8 0 -15 9 -15 20
0 11 -5 20 -11 20 -22 0 -129 55 -129 66 0 17 -79 86 -90 79 -6 -4 -10 -9 -10
-12 0 -4 3 -3 7 0 8 9 33 -12 33 -27 0 -7 -3 -6 -9 2 -4 7 -18 14 -30 15 -15
1 -20 6 -15 17 3 8 8 24 11 35 3 11 13 36 24 56 l19 36 -25 23 c-27 25 -25 41
4 33 15 -4 19 3 25 34 3 21 9 49 12 63 5 20 3 22 -5 10 -11 -15 -9 8 6 63 10
37 3 158 -12 219 -25 94 -72 175 -145 249 -124 125 -302 180 -474 147z m109
-308 c3 -5 -1 -10 -9 -10 -9 0 -16 5 -16 10 0 6 4 10 9 10 6 0 13 -4 16 -10z
m65 -60 c13 -8 13 -10 -2 -10 -9 0 -20 5 -23 10 -8 13 5 13 25 0z m65 0 c3 -6
-1 -7 -9 -4 -18 7 -21 14 -7 14 6 0 13 -4 16 -10z m-95 -42 c36 -39 32 -47 -9
-17 -22 16 -38 20 -60 16 -33 -7 -39 1 -19 21 21 21 58 13 88 -20z m-50 -38
c0 -11 -4 -20 -10 -20 -5 0 -10 9 -10 20 0 11 5 20 10 20 6 0 10 -9 10 -20z
m70 -62 c0 -27 -2 -29 -17 -17 -15 12 -16 12 -10 -3 9 -25 -27 -24 -53 2 l-20
20 28 1 c15 1 32 0 37 -1 6 -1 7 2 3 6 -10 9 12 35 23 28 5 -3 9 -19 9 -36z"/>
<path d="M2971 7256 c-12 -18 -21 -44 -20 -57 1 -21 3 -19 16 11 8 19 20 38
25 41 6 4 8 11 4 17 -3 6 0 13 6 15 9 4 9 6 1 6 -6 1 -21 -14 -32 -33z"/>
<path d="M5387 7279 c-37 -6 -137 -51 -137 -62 0 -1 44 -2 98 -3 86 -1 102 -4
144 -28 25 -15 52 -33 58 -41 14 -16 35 -21 25 -6 -3 5 0 13 6 17 8 5 10 0 6
-18 -7 -26 13 -55 27 -40 4 4 6 3 5 -3 -4 -15 23 -85 32 -80 4 3 7 -1 6 -8 0
-6 1 -28 2 -47 2 -33 3 -34 16 -16 8 10 12 23 8 29 -3 6 -1 7 5 3 9 -5 9 -13
1 -28 -9 -16 -39 -138 -39 -156 0 -11 51 60 61 84 31 82 35 182 9 242 -24 53
-49 84 -62 76 -4 -3 -7 0 -6 8 2 7 -3 12 -9 11 -7 -2 -12 2 -10 8 1 6 -8 18
-20 26 -13 9 -23 11 -23 5 0 -6 -14 -4 -32 6 -43 21 -111 29 -171 21z"/>
<path d="M5250 7184 c-47 -16 -103 -49 -135 -82 -43 -43 -62 -82 -76 -155 -10
-54 -3 -140 11 -132 5 3 12 0 16 -6 5 -8 3 -9 -6 -4 -10 6 -11 2 -6 -18 3 -15
1 -35 -5 -45 -10 -15 -9 -24 4 -43 10 -13 17 -30 17 -37 0 -16 -39 -51 -57
-52 -12 0 -154 -70 -163 -79 -6 -7 -27 -12 -55 -14 -11 -1 -24 -7 -30 -14 -5
-7 -21 -15 -34 -18 -13 -2 -32 -12 -43 -21 -10 -10 -26 -18 -36 -19 -10 0 -32
-11 -49 -23 -17 -12 -45 -23 -62 -25 -17 -2 -34 -7 -38 -10 -10 -10 -25 -8
-19 2 3 5 -1 12 -10 15 -22 8 -26 8 -19 -4 3 -5 0 -7 -9 -4 -17 7 -12 77 8
109 20 30 28 73 15 80 -7 5 -3 15 11 30 l22 23 -29 6 c-15 3 -59 10 -98 16
-85 11 -91 7 -106 -75 -6 -33 -28 -106 -50 -163 -21 -56 -39 -117 -39 -136 l0
-33 78 17 c94 21 162 42 162 52 0 4 17 10 38 13 20 4 51 13 69 21 17 8 44 14
60 14 16 0 38 7 49 15 10 8 33 15 50 15 47 0 87 17 220 91 111 62 234 119 257
119 5 0 3 -7 -4 -17 -13 -15 -12 -15 9 -4 l24 13 -24 25 -23 26 41 -24 c23
-13 40 -28 37 -34 -7 -20 24 -38 44 -26 17 9 17 10 -4 18 -14 5 11 8 70 8 71
0 100 4 127 19 69 37 116 84 150 150 29 58 33 77 33 139 0 63 -4 81 -33 135
-35 66 -84 117 -102 106 -6 -4 -8 -2 -4 4 3 6 -4 18 -16 26 -28 20 -49 21 -22
1 24 -19 17 -19 -36 0 -40 14 -147 19 -180 9z m271 -166 c16 -29 2 -21 -22 15
-17 23 -18 28 -6 18 10 -8 23 -23 28 -33z m-231 -3 c-7 -8 -24 -15 -39 -15
-19 0 -22 3 -12 9 8 5 20 7 27 4 6 -2 15 0 19 6 3 6 9 11 12 11 3 0 0 -7 -7
-15z m86 -31 c-3 -9 -6 -20 -6 -25 0 -5 -5 -9 -10 -9 -6 0 -21 -10 -34 -23
-22 -22 -23 -24 -5 -45 23 -29 33 -28 69 10 20 21 28 37 24 50 -7 24 8 23 24
-2 10 -16 9 -26 -5 -55 -9 -19 -20 -35 -25 -35 -4 0 -10 0 -12 -1 -3 0 -25
-20 -50 -45 -51 -50 -91 -57 -121 -24 -22 24 -13 26 19 5 46 -31 99 17 82 73
-7 22 -47 36 -77 27 -10 -4 -26 -18 -34 -33 -14 -24 -15 -25 -9 -4 6 23 81
102 96 102 4 0 19 11 34 25 31 28 49 33 40 9z m79 -4 c18 -8 17 -9 -7 -9 -16
-1 -28 4 -28 9 0 12 8 12 35 0z m-268 -82 c-3 -8 -6 -5 -6 6 -1 11 2 17 5 13
3 -3 4 -12 1 -19z m303 8 c0 -2 -8 -10 -17 -17 -16 -13 -17 -12 -4 4 13 16 21
21 21 13z m-221 -73 c-12 -15 -12 -16 4 -10 19 7 24 -8 5 -19 -12 -8 -40 24
-32 37 3 5 12 9 21 9 13 0 14 -2 2 -17z m-104 -75 c4 -7 -3 -2 -14 12 -11 14
-21 32 -21 40 0 13 5 5 35 -52z m222 -4 c-3 -3 -12 -4 -19 -1 -8 3 -5 6 6 6
11 1 17 -2 13 -5z"/>
<path d="M2980 7031 c0 -22 6 -46 14 -54 8 -8 14 -20 14 -28 -2 -35 2 -82 7
-77 10 10 14 137 5 143 -5 3 -7 11 -4 18 2 7 -5 18 -16 25 -19 11 -20 10 -20
-27z"/>
<path d="M1995 6875 c1 -14 5 -28 8 -32 4 -3 2 -12 -5 -20 -9 -11 -7 -18 7
-31 10 -9 15 -12 11 -5 -4 7 4 13 21 15 21 2 28 8 27 25 0 12 4 21 9 20 5 -1
11 6 12 16 2 11 1 16 -2 13 -4 -3 -13 0 -21 7 -13 10 -14 9 -7 -2 6 -11 2 -10
-16 2 -33 23 -45 21 -44 -8z"/>
<path d="M3925 6739 c-38 -5 -90 -13 -115 -18 -36 -8 -29 -9 35 -3 107 9 181
4 224 -14 40 -17 73 -12 108 15 l23 19 -23 6 c-30 8 -167 5 -252 -5z"/>
<path d="M4220 6706 c0 -13 -2 -39 -6 -57 l-5 -34 22 40 c29 53 28 53 45 31
12 -17 14 -17 14 -3 0 17 -36 47 -57 47 -7 0 -13 -11 -13 -24z"/>
<path d="M3678 6703 c-26 -6 -22 -48 8 -113 l27 -55 8 30 c5 17 9 53 10 82 2
38 6 53 18 56 9 3 0 5 -19 5 -19 0 -43 -2 -52 -5z"/>
<path d="M4015 6700 c3 -5 8 -10 11 -10 2 0 4 5 4 10 0 6 -5 10 -11 10 -5 0
-7 -4 -4 -10z"/>
<path d="M3977 6689 c7 -7 15 -10 18 -7 3 3 -2 9 -12 12 -14 6 -15 5 -6 -5z"/>
<path d="M790 6634 c-91 -51 -267 -72 -369 -44 -70 19 -59 3 14 -19 116 -36
281 -24 381 27 33 17 34 19 17 34 -16 14 -21 15 -43 2z"/>
<path d="M3975 6640 c3 -5 11 -10 16 -10 6 0 7 5 4 10 -3 6 -11 10 -16 10 -6
0 -7 -4 -4 -10z"/>
<path d="M2793 6618 c-5 -7 -16 -29 -23 -48 -8 -19 -24 -51 -37 -70 -13 -19
-23 -39 -23 -44 0 -6 -12 -22 -26 -37 -41 -43 -10 -45 34 -1 23 23 46 61 60
99 15 40 30 64 42 68 11 4 20 12 20 20 0 7 6 16 13 18 6 3 -2 6 -19 6 -17 1
-36 -5 -41 -11z"/>
<path d="M1886 6481 c-4 -7 -5 -15 -2 -18 9 -9 19 4 14 18 -4 11 -6 11 -12 0z"/>
<path d="M2055 6472 c18 -17 58 -26 53 -11 -2 7 -17 14 -34 16 -18 3 -25 1
-19 -5z"/>
<path d="M2006 6428 c3 -4 0 -8 -6 -8 -6 0 -8 -5 -5 -11 4 -5 12 -8 18 -6 15
5 17 34 1 34 -7 0 -11 -4 -8 -9z"/>
<path d="M2444 6214 c-4 -14 -3 -46 1 -72 4 -26 9 -65 12 -87 2 -22 8 -57 13
-78 7 -31 5 -40 -11 -50 -16 -12 -17 -19 -8 -50 5 -20 14 -37 18 -37 12 0 21
42 15 67 -5 18 -2 21 14 16 19 -5 20 -3 11 30 -11 39 -8 79 5 89 6 4 6 12 -1
20 -19 24 -32 75 -21 86 6 6 2 24 -11 51 -12 22 -23 41 -26 41 -3 0 -8 -12
-11 -26z"/>
<path d="M2520 6100 c0 -5 5 -10 11 -10 5 0 7 5 4 10 -3 6 -8 10 -11 10 -2 0
-4 -4 -4 -10z"/>
<path d="M4100 6100 c0 -5 5 -10 10 -10 6 0 10 5 10 10 0 6 -4 10 -10 10 -5 0
-10 -4 -10 -10z"/>
<path d="M2570 6020 c-1 -33 -9 -107 -14 -145 -3 -16 -5 -33 -5 -37 -1 -5 -6
-8 -12 -8 -6 0 -9 14 -7 32 2 18 -2 33 -9 35 -8 3 -11 -11 -10 -49 1 -38 -2
-52 -10 -50 -17 3 -16 -17 2 -52 8 -15 12 -32 9 -37 -3 -5 -1 -9 5 -9 5 0 12
-10 14 -22 2 -13 5 -2 7 25 1 26 4 52 5 57 1 6 3 15 4 21 0 5 6 7 11 4 11 -7
11 -10 16 75 2 36 5 83 7 105 3 22 1 49 -4 60 -7 18 -8 18 -9 -5z"/>
<path d="M3002 6020 c0 -14 2 -19 5 -12 2 6 2 18 0 25 -3 6 -5 1 -5 -13z"/>
<path d="M2941 5784 c0 -11 3 -14 6 -6 3 7 2 16 -1 19 -3 4 -6 -2 -5 -13z"/>
<path d="M2566 5743 c-6 -14 -5 -15 5 -6 7 7 10 15 7 18 -3 3 -9 -2 -12 -12z"/>
<path d="M2922 5710 c0 -14 2 -19 5 -12 2 6 2 18 0 25 -3 6 -5 1 -5 -13z"/>
<path d="M2480 5687 c0 -14 5 -29 10 -32 7 -4 8 3 4 22 -9 38 -14 42 -14 10z"/>
<path d="M4050 5540 c1 -8 9 -31 20 -50 14 -26 19 -30 20 -15 0 11 -9 34 -20
50 -11 17 -20 23 -20 15z"/>
<path d="M2521 5499 c-1 -21 5 -42 14 -49 19 -16 19 0 0 50 l-13 35 -1 -36z"/>
<path d="M1586 5487 c-17 -25 -48 -108 -43 -113 2 -2 17 28 34 66 32 72 35 87
9 47z"/>
<path d="M2477 5471 c-3 -11 1 -25 9 -32 11 -9 14 -8 14 7 0 11 -4 25 -9 32
-6 11 -9 9 -14 -7z"/>
<path d="M2490 5409 c-13 -9 -12 -10 3 -5 11 3 20 0 23 -9 4 -8 11 -15 18 -15
6 0 23 -7 39 -14 25 -14 27 -13 27 3 0 10 -7 24 -15 31 -8 7 -15 9 -15 4 0 -4
-5 -3 -12 4 -15 15 -48 15 -68 1z"/>
<path d="M2450 5384 c0 -8 5 -12 10 -9 6 4 8 11 5 16 -9 14 -15 11 -15 -7z"/>
<path d="M2450 5325 c0 -8 5 -15 10 -15 6 0 10 7 10 15 0 8 -4 15 -10 15 -5 0
-10 -7 -10 -15z"/>
<path d="M2476 5102 c-3 -5 10 -26 29 -48 19 -21 39 -45 45 -51 6 -7 21 -13
33 -13 18 0 13 8 -31 49 -29 27 -52 54 -52 60 0 13 -16 15 -24 3z"/>
<path d="M4526 5077 c3 -10 9 -15 12 -12 3 3 0 11 -7 18 -10 9 -11 8 -5 -6z"/>
<path d="M1483 5037 c4 -10 10 -50 13 -88 7 -65 16 -85 27 -56 6 15 -25 142
-37 154 -5 5 -6 0 -3 -10z"/>
<path d="M1542 5028 c-12 -15 -14 -89 -3 -107 5 -8 10 6 13 36 3 26 9 56 13
66 8 20 -8 23 -23 5z"/>
<path d="M1530 4891 c0 -6 5 -13 10 -16 6 -3 10 1 10 9 0 9 -4 16 -10 16 -5 0
-10 -4 -10 -9z"/>
<path d="M1570 4881 c0 -5 5 -13 10 -16 6 -3 10 -2 10 4 0 5 -4 13 -10 16 -5
3 -10 2 -10 -4z"/>
<path d="M4594 4866 c4 -17 3 -25 -3 -22 -5 4 -12 2 -16 -4 -3 -5 1 -10 9 -10
8 0 18 5 21 10 3 6 11 10 16 10 6 0 7 -4 4 -10 -3 -5 -1 -10 4 -10 6 0 11 6
11 13 0 8 4 7 10 -3 9 -13 11 -13 21 0 7 11 12 12 15 3 3 -7 12 -9 21 -6 11 4
14 2 9 -5 -4 -7 -2 -12 3 -12 6 0 11 6 11 13 0 8 4 7 10 -3 9 -13 11 -13 20 0
7 12 10 12 10 1 0 -7 6 -11 15 -7 8 3 15 1 15 -4 0 -6 5 -10 10 -10 12 0 13
37 1 44 -10 6 -41 11 -142 21 -35 4 -68 9 -73 12 -5 4 -6 -6 -2 -21z"/>
<path d="M1517 4733 c-3 -10 -2 -38 2 -63 6 -43 7 -44 19 -22 8 14 10 36 6 57
-7 40 -20 53 -27 28z"/>
<path d="M1555 4729 c-4 -6 -5 -12 -2 -15 2 -3 7 2 10 11 7 17 1 20 -8 4z"/>
<path d="M2260 4676 c0 -8 5 -18 10 -21 6 -3 10 1 10 9 0 8 -4 18 -10 21 -5 3
-10 -1 -10 -9z"/>
<path d="M3580 4611 c0 -5 5 -13 10 -16 6 -3 10 -2 10 4 0 5 -4 13 -10 16 -5
3 -10 2 -10 -4z"/>
<path d="M1531 4545 c1 -19 18 -51 18 -35 0 8 -4 22 -9 30 -5 8 -9 11 -9 5z"/>
<path d="M3194 4532 c-9 -5 -8 -11 2 -20 12 -11 14 -9 14 8 0 22 0 23 -16 12z"/>
<path d="M3190 4470 c0 -5 5 -10 10 -10 6 0 10 5 10 10 0 6 -4 10 -10 10 -5 0
-10 -4 -10 -10z"/>
<path d="M3231 4464 c0 -11 3 -14 6 -6 3 7 2 16 -1 19 -3 4 -6 -2 -5 -13z"/>
<path d="M3470 4391 c0 -18 -9 -38 -21 -49 l-20 -19 57 -99 c31 -55 64 -108
73 -119 29 -34 91 -135 101 -163 16 -44 -48 35 -144 178 -95 141 -136 217
-121 228 6 4 11 16 12 27 2 18 1 18 -9 -2 -6 -13 -17 -23 -25 -23 -15 0 -17
12 -3 26 6 6 6 15 0 24 -8 12 -10 11 -10 -7 0 -24 -22 -43 -28 -25 -3 9 -9 9
-24 1 -15 -8 -24 -7 -37 5 -29 27 -45 2 -68 -106 -25 -121 -25 -315 0 -483 26
-169 39 -344 35 -485 -3 -129 -4 -134 -18 -102 -13 28 -30 43 -30 27 0 -3 -7
-38 -15 -78 -8 -40 -21 -124 -30 -187 -8 -63 -20 -140 -25 -170 -5 -30 -14
-97 -20 -148 -10 -87 -9 -99 19 -211 16 -66 48 -164 71 -218 30 -68 43 -115
45 -153 1 -30 10 -93 19 -140 9 -47 16 -109 16 -138 0 -46 -3 -55 -21 -59 -16
-5 -19 -11 -13 -27 4 -11 7 -39 8 -61 1 -22 7 -50 14 -63 11 -18 11 -29 0 -57
-9 -28 -10 -44 0 -78 7 -23 14 -61 15 -84 2 -24 5 -44 8 -46 2 -2 18 -13 35
-25 l32 -22 36 63 c20 34 46 81 59 105 12 23 42 75 66 115 l45 72 19 -82 c15
-66 23 -82 40 -87 12 -3 79 -6 150 -6 108 0 127 2 127 15 0 31 32 64 78 81 26
10 50 23 54 28 8 12 1 144 -9 159 -3 5 0 20 7 33 10 18 11 30 2 48 -6 13 -8
43 -5 67 3 28 1 39 -4 31 -17 -23 -71 -31 -136 -20 -60 10 -116 28 -118 38 -7
43 -2 60 18 69 26 12 29 26 10 46 -9 8 -13 35 -12 72 0 44 -3 60 -13 60 -7 0
-11 -6 -8 -14 3 -7 1 -13 -4 -13 -10 0 -13 12 -11 45 1 11 -5 41 -13 68 -12
42 -12 47 1 47 9 0 13 6 10 14 -6 14 2 78 23 191 11 57 18 112 23 183 1 17 5
32 9 32 5 0 8 6 8 14 0 8 5 16 11 18 6 2 12 16 12 30 0 17 6 28 18 31 11 3 17
11 14 19 -7 18 21 87 48 115 11 13 18 26 14 29 -3 4 1 13 9 21 8 8 12 19 8 24
-3 5 4 22 15 38 12 16 21 33 21 38 0 4 11 20 25 35 14 15 25 34 25 42 0 17 48
68 58 63 9 -5 42 30 35 37 -4 3 4 14 16 25 14 13 18 22 11 26 -8 5 -6 13 5 25
18 20 37 138 24 146 -4 2 -5 20 -2 39 3 21 1 41 -7 50 -10 12 -10 15 1 15 10
1 9 4 -3 14 -10 7 -18 24 -18 37 0 24 -23 67 -44 81 -6 4 -8 8 -4 8 12 0 -39
50 -51 50 -6 0 -11 7 -11 16 0 11 -6 14 -20 9 -11 -4 -20 -2 -20 4 0 6 -7 11
-15 11 -8 0 -15 -7 -15 -16 0 -13 -4 -12 -28 5 -16 11 -40 23 -55 26 -14 4
-40 20 -56 36 -21 19 -36 26 -48 22 -16 -6 -16 -5 -4 11 12 14 12 17 1 14 -8
-2 -15 2 -15 7 -1 6 -9 27 -18 49 -9 21 -17 43 -17 48 0 5 -6 6 -12 2 -10 -6
-10 -5 -1 8 7 8 11 17 8 20 -3 2 -6 19 -7 36 -2 17 -13 42 -25 56 -15 17 -19
28 -11 32 7 5 5 12 -8 21 -11 8 -20 29 -22 51 -4 59 -5 62 -14 62 -4 0 -8 6
-8 13 0 8 -9 22 -20 32 -12 10 -18 25 -16 32 3 7 1 15 -4 18 -6 4 -10 -2 -10
-13 0 -10 -9 -29 -20 -42 -11 -13 -20 -27 -20 -32 0 -4 -9 -8 -21 -8 -12 0
-17 4 -13 11 4 7 -1 7 -16 -1 -21 -11 -22 -10 -15 6 18 45 23 74 14 79 -5 4
-9 -7 -9 -24z m0 -641 c20 -20 62 -104 58 -116 -2 -5 1 -10 6 -11 12 -3 34
-46 28 -57 -9 -16 -8 -130 1 -165 6 -25 5 -36 -5 -42 -17 -10 -17 -234 -1
-250 17 -17 87 2 91 25 2 10 11 26 20 36 31 35 40 47 46 68 7 20 5 21 -25 15
l-32 -6 47 57 c25 31 48 69 51 84 4 15 9 38 12 52 2 14 7 39 9 55 5 43 24 123
40 173 8 24 11 48 8 54 -4 6 2 5 15 -1 29 -16 97 -103 128 -165 29 -58 27 -99
-11 -174 -13 -26 -26 -60 -30 -77 -4 -16 -48 -114 -98 -217 -49 -102 -91 -192
-92 -200 -2 -7 -5 -20 -8 -28 -58 -167 -69 -273 -61 -576 6 -215 1 -293 -17
-265 -6 10 -12 6 -23 -16 -9 -16 -23 -35 -31 -42 -21 -18 -20 -43 4 -73 l19
-25 -33 -32 -32 -31 -17 77 c-25 108 -24 105 -32 233 -7 128 -11 158 -24 192
-5 14 -6 68 -1 123 4 55 8 156 9 224 1 68 6 146 11 173 13 69 12 138 -3 167
-17 34 -27 31 -45 -14 -9 -22 -19 -41 -24 -43 -4 -2 -8 -13 -8 -24 0 -16 -3
-18 -14 -9 -16 13 -28 65 -31 132 -1 25 -7 55 -14 66 -6 12 -11 35 -11 52 0
16 -5 33 -11 37 -13 8 -5 226 10 267 6 15 8 27 5 27 -3 0 -2 6 3 13 4 6 8 40
9 74 2 34 7 70 12 80 8 13 6 20 -6 30 -16 11 -15 12 2 13 14 0 17 5 12 24 -4
15 -1 27 7 30 9 5 9 7 -1 12 -6 3 -10 10 -7 15 8 12 65 -1 85 -21z m-80 -1371
c0 -6 -7 -9 -15 -5 -8 3 -15 2 -15 -3 0 -5 7 -14 15 -21 16 -13 20 -46 7 -54
-4 -2 -7 -23 -6 -46 0 -22 -3 -43 -8 -46 -4 -3 -8 -14 -8 -25 0 -16 -2 -18
-14 -7 -10 9 -11 17 -4 26 8 9 7 11 -5 6 -11 -4 -15 0 -13 13 2 10 -1 23 -6
30 -12 15 0 55 14 47 6 -4 9 -1 6 7 -3 8 -1 24 3 37 6 14 5 22 -2 22 -8 0 -7
5 1 15 14 17 50 20 50 4z"/>
<path d="M3350 2251 c0 -6 4 -13 10 -16 6 -3 7 1 4 9 -7 18 -14 21 -14 7z"/>
<path d="M1570 4400 c0 -5 5 -10 11 -10 5 0 7 5 4 10 -3 6 -8 10 -11 10 -2 0
-4 -4 -4 -10z"/>
<path d="M3424 4367 c-1 -30 -1 -30 9 -9 6 14 7 26 1 32 -5 5 -9 -4 -10 -23z"/>
<path d="M3925 4271 c4 -9 16 -40 27 -68 10 -29 24 -55 29 -58 5 -4 9 -15 9
-25 0 -11 8 -39 19 -62 23 -54 62 -150 65 -163 8 -33 19 -55 27 -55 6 0 7 -5
4 -10 -4 -6 -1 -18 6 -26 10 -12 9 -16 -9 -21 -12 -3 -19 -9 -16 -14 3 -5 14
-4 26 2 16 9 19 8 13 -2 -5 -8 2 -21 21 -36 16 -13 21 -21 12 -17 -10 3 -18 2
-18 -4 0 -5 7 -12 15 -16 8 -3 15 -12 15 -21 0 -8 5 -15 11 -15 6 0 9 -9 6
-20 -3 -10 -2 -19 2 -18 20 2 31 -4 31 -19 1 -17 1 -17 11 -1 5 10 9 21 9 24
-1 4 4 10 10 14 9 5 9 9 1 14 -6 4 -11 2 -11 -3 0 -6 -5 -11 -11 -11 -6 0 -8
7 -5 16 4 12 2 15 -9 10 -19 -7 -20 10 -1 21 14 8 16 12 16 34 0 5 5 7 10 4 6
-3 10 -1 10 5 0 8 -9 10 -26 6 -22 -6 -25 -4 -19 13 7 23 -14 61 -33 61 -7 0
-11 4 -8 9 8 12 -19 62 -29 53 -4 -4 -2 4 5 17 6 13 8 21 3 18 -10 -6 -70 109
-66 124 2 4 -6 11 -17 14 -11 4 -18 11 -15 16 4 5 1 9 -6 9 -6 0 -9 8 -6 20 3
12 1 18 -5 14 -6 -4 -8 2 -6 12 2 11 -6 28 -18 40 -13 12 -20 24 -17 27 3 4
-2 13 -11 22 -9 9 -16 25 -16 35 0 10 -5 22 -10 25 -6 4 -8 10 -6 14 3 4 -2 8
-10 8 -10 0 -13 -6 -9 -16z"/>
<path d="M1572 4210 c0 -14 2 -19 5 -12 2 6 2 18 0 25 -3 6 -5 1 -5 -13z"/>
<path d="M1585 4103 c7 -43 17 -89 24 -103 l12 -25 -6 25 c-2 14 -10 60 -17
103 -7 42 -15 77 -19 77 -3 0 0 -35 6 -77z"/>
<path d="M4356 4004 c-19 -49 8 -155 35 -139 5 3 6 -1 3 -9 -3 -9 -11 -16 -18
-16 -6 0 -2 -7 8 -15 11 -8 15 -15 8 -15 -7 0 -9 -10 -6 -30 4 -16 1 -51 -5
-77 -9 -33 -9 -49 -2 -51 6 -2 11 -15 11 -28 0 -14 4 -22 10 -19 6 3 10 1 10
-5 0 -6 5 -8 10 -5 6 3 10 -1 10 -9 0 -9 9 -25 19 -35 11 -11 17 -22 14 -25
-4 -3 -1 -6 5 -6 17 0 43 -56 47 -100 3 -35 1 -40 -25 -49 -16 -5 -30 -6 -32
-1 -2 5 -15 11 -29 15 -23 6 -27 3 -31 -22 -3 -26 -1 -29 18 -25 12 2 25 -1
28 -7 8 -12 -16 -41 -34 -41 -6 0 -8 -4 -5 -10 3 -5 2 -10 -2 -10 -5 0 -32
-31 -62 -70 -32 -42 -57 -67 -64 -63 -13 8 12 -28 27 -39 6 -4 6 -12 -1 -20
-14 -17 -10 -91 4 -95 26 -9 110 129 127 207 3 15 24 39 50 57 39 28 48 41 65
98 26 84 26 92 -2 146 -13 24 -32 78 -41 119 -24 98 -72 231 -108 300 -16 30
-27 47 -24 37 4 -11 2 -16 -5 -11 -6 3 -8 21 -4 45 7 40 2 52 -9 23z m19 -94
c3 -5 1 -10 -4 -10 -6 0 -11 5 -11 10 0 6 2 10 4 10 3 0 8 -4 11 -10z"/>
<path d="M4245 3700 c3 -5 8 -10 11 -10 2 0 4 5 4 10 0 6 -5 10 -11 10 -5 0
-7 -4 -4 -10z"/>
<path d="M4360 3401 c-18 -5 -21 -9 -10 -13 22 -8 34 -5 36 10 1 6 2 12 1 11
-1 -1 -13 -4 -27 -8z"/>
<path d="M2741 3154 c0 -11 3 -14 6 -6 3 7 2 16 -1 19 -3 4 -6 -2 -5 -13z"/>
<path d="M2745 3109 c6 -33 15 -36 15 -6 0 15 -4 27 -9 27 -6 0 -8 -10 -6 -21z"/>
<path d="M3924 2548 c4 -17 1 -32 -8 -41 -8 -8 -24 -41 -35 -73 -11 -33 -23
-68 -27 -78 -6 -15 -4 -17 6 -11 10 6 11 4 5 -11 -17 -40 -17 -71 -1 -71 18 0
21 13 6 22 -5 3 -10 11 -10 18 0 8 3 8 12 -1 16 -16 29 -15 27 1 -4 33 2 67
16 81 8 8 15 22 15 30 0 9 4 16 8 16 12 0 4 122 -9 134 -9 8 -10 4 -5 -16z"/>
<path d="M3832 2215 c13 -29 21 -31 38 -10 10 12 9 15 -4 15 -10 0 -14 5 -11
10 3 6 -3 10 -14 10 -18 0 -19 -3 -9 -25z"/>
<path d="M2540 2222 c0 -5 9 -12 21 -15 13 -3 19 -1 16 6 -5 15 -37 22 -37 9z"/>
<path d="M2570 2141 c0 -6 4 -13 10 -16 6 -3 7 1 4 9 -7 18 -14 21 -14 7z"/>
<path d="M3810 2120 c0 -6 -4 -9 -8 -6 -7 4 -8 -16 -3 -61 2 -21 28 -15 34 7
3 11 1 18 -3 15 -5 -3 -11 -1 -15 5 -3 5 -1 10 4 10 14 0 14 27 1 35 -5 3 -10
1 -10 -5z"/>
<path d="M2506 2062 c6 -4 10 -15 8 -25 -1 -11 0 -16 3 -13 3 3 14 1 24 -5 13
-6 19 -6 19 1 0 5 -8 10 -17 10 -15 0 -16 2 -3 10 13 9 13 11 0 20 -8 5 -22
10 -30 10 -10 0 -11 -3 -4 -8z"/>
<path d="M2565 2059 c-10 -15 3 -25 16 -12 7 7 7 13 1 17 -6 3 -14 1 -17 -5z"/>
<path d="M2540 1985 c0 -12 -4 -13 -19 -5 -25 13 -44 13 -36 0 4 -6 11 -8 16
-5 8 5 13 -7 11 -26 -1 -3 5 -6 13 -6 8 0 19 13 24 29 6 17 6 28 0 28 -5 0 -9
-7 -9 -15z"/>
<path d="M2559 1830 c-3 -17 -11 -26 -26 -28 -13 -2 -23 -8 -23 -13 0 -6 5 -7
11 -3 6 3 15 1 20 -7 6 -10 11 -6 19 16 6 15 9 36 7 44 -2 10 -5 6 -8 -9z"/>
<path d="M2546 1757 c-16 -12 -16 -14 -3 -14 9 0 18 6 21 14 3 7 4 13 3 13 -2
0 -11 -6 -21 -13z"/>
<path d="M2768 1420 c-4 -14 -10 -49 -14 -77 l-7 -53 32 0 c35 0 35 -1 20 37
-6 15 -14 48 -18 73 -6 38 -8 41 -13 20z"/>
<path d="M2009 1373 c-13 -16 -12 -17 4 -4 9 7 17 15 17 17 0 8 -8 3 -21 -13z"/>
<path d="M1991 1334 c0 -11 3 -14 6 -6 3 7 2 16 -1 19 -3 4 -6 -2 -5 -13z"/>
<path d="M1910 1250 c8 -5 20 -10 25 -10 6 0 3 5 -5 10 -8 5 -19 10 -25 10 -5
0 -3 -5 5 -10z"/>
<path d="M1967 1174 c-4 -4 -7 -14 -7 -23 0 -11 3 -12 11 -4 6 6 10 16 7 23
-2 6 -7 8 -11 4z"/>
<path d="M3608 1116 c5 -42 21 -46 169 -46 112 0 125 8 67 42 -30 18 -138 37
-204 38 -35 0 -36 -1 -32 -34z"/>
<path d="M2033 931 c-11 -17 -10 -20 5 -18 10 0 18 9 18 19 0 23 -8 23 -23 -1z"/>
<path d="M3376 929 c20 -19 152 -74 161 -66 2 2 -24 23 -57 45 -40 28 -71 42
-93 42 l-31 0 20 -21z"/>
<path d="M3600 946 c0 -6 96 -76 105 -76 8 0 -40 40 -77 63 -16 10 -28 15 -28
13z"/>
<path d="M1618 849 c22 -21 52 -35 90 -44 69 -16 139 -22 148 -12 4 4 2 7 -5
7 -8 0 -10 7 -6 20 8 24 -10 27 -23 3 -8 -13 -19 -15 -58 -9 -27 3 -54 13 -60
22 -9 11 -13 12 -16 3 -3 -9 -19 -5 -54 14 l-49 28 33 -32z"/>
<path d="M3326 809 c2 -4 30 -10 61 -13 79 -10 93 -15 87 -31 -3 -8 -9 -14
-12 -13 -33 4 -52 -4 -52 -22 0 -12 -7 -20 -17 -21 -49 -2 -110 4 -128 14 -18
9 -19 9 -6 -7 30 -37 70 -48 171 -48 54 0 131 5 172 11 40 6 96 10 125 8 62
-3 60 1 -39 75 l-70 52 -148 1 c-82 0 -147 -2 -144 -6z"/>
<path d="M4432 755 c-69 -14 -101 -31 -37 -20 58 10 115 25 115 30 0 6 3 6
-78 -10z"/>
<path d="M3370 740 c-8 -5 -11 -12 -7 -16 4 -4 15 0 24 9 18 18 8 23 -17 7z"/>
<path d="M1710 670 c-24 -19 -24 -19 -2 -13 12 3 25 10 28 15 11 18 -1 17 -26
-2z"/>
<path d="M1660 639 c0 -5 5 -7 10 -4 6 3 10 8 10 11 0 2 -4 4 -10 4 -5 0 -10
-5 -10 -11z"/>
<path d="M4092 465 c9 -10 21 -16 28 -13 7 2 -1 10 -16 17 -27 12 -28 11 -12
-4z"/>
<path d="M4150 440 c0 -4 -13 -13 -30 -20 -42 -17 -38 -26 16 -34 125 -17 323
-3 339 25 4 6 -3 7 -22 2 -46 -13 -174 -5 -240 16 -35 10 -63 16 -63 11z"/>
</g>
</svg>
