<?xml version="1.0" standalone="no"?>
<!DOCTYPE svg PUBLIC "-//W3C//DTD SVG 20010904//EN"
 "http://www.w3.org/TR/2001/REC-SVG-20010904/DTD/svg10.dtd">
<svg version="1.0" xmlns="http://www.w3.org/2000/svg"
 width="600.000000pt" height="600.000000pt" viewBox="0 0 600.000000 600.000000"
 preserveAspectRatio="xMidYMid meet">

<g transform="translate(0.000000,600.000000) scale(0.100000,-0.100000)"
fill="#000000" stroke="none">
<path d="M3025 5210 c-186 -39 -320 -161 -359 -330 -28 -118 -15 -295 34 -461
11 -36 20 -69 20 -73 0 -4 -20 6 -43 23 -24 16 -56 33 -70 36 -22 6 -29 3 -38
-19 -21 -46 4 -123 82 -248 38 -62 94 -162 123 -223 41 -84 74 -134 140 -210
47 -55 118 -139 156 -187 106 -131 202 -192 320 -205 63 -6 91 4 116 42 15 23
15 27 -1 51 -17 26 -19 27 -91 21 -61 -6 -72 -4 -68 7 9 23 78 45 175 56 112
13 127 20 134 68 8 47 18 66 39 70 22 5 37 -39 27 -75 -5 -15 -27 -59 -50 -98
-84 -143 -44 -157 184 -62 33 14 90 28 128 32 53 6 67 11 67 24 0 18 -216 227
-258 250 -37 20 -101 16 -131 -8 -14 -12 -42 -28 -61 -36 l-34 -16 29 -24 30
-24 -22 -22 c-37 -38 -251 -51 -303 -19 -28 18 5 30 103 37 91 7 117 18 85 35
-7 4 -44 21 -82 39 -68 31 -69 31 -85 12 -20 -25 -44 -34 -61 -23 -18 11 13
92 49 127 32 30 118 73 149 73 26 0 27 -3 6 -35 -23 -35 -23 -94 1 -111 29
-22 111 -18 135 6 25 25 25 39 -1 101 -15 35 -19 53 -12 60 14 14 45 -2 67
-36 17 -26 40 -33 51 -15 11 18 25 123 19 147 -9 32 -28 29 -100 -18 -61 -39
-84 -43 -84 -14 0 27 -20 25 -102 -9 -100 -41 -285 -92 -296 -82 -4 5 4 16 18
24 41 27 82 71 75 81 -3 6 -41 29 -85 52 -91 49 -106 75 -36 65 24 -4 94 -23
157 -42 137 -42 159 -40 219 21 49 50 70 55 100 25 29 -29 45 -25 84 23 79 96
105 210 106 452 0 108 -5 181 -15 224 -49 205 -227 382 -440 436 -63 16 -231
19 -300 5z"/>
<path d="M2415 4115 c-176 -34 -335 -118 -335 -177 0 -36 34 -83 73 -102 20
-9 91 -27 157 -41 67 -13 128 -30 137 -37 11 -9 14 -24 10 -60 -8 -65 9 -63
78 6 64 64 85 122 85 238 0 160 -51 203 -205 173z"/>
<path d="M1663 4019 c-221 -37 -457 -226 -514 -413 -38 -123 -16 -281 48 -348
15 -16 36 -28 48 -28 28 0 110 28 203 70 40 18 75 30 79 26 3 -3 -1 -48 -10
-99 -11 -58 -17 -148 -17 -238 0 -164 -8 -190 -39 -138 -12 19 -26 52 -31 74
-15 57 -22 67 -61 80 -35 12 -59 44 -59 81 0 26 -36 60 -72 69 -52 13 -75 -1
-123 -78 -26 -39 -85 -111 -132 -158 -76 -77 -86 -91 -90 -130 -4 -36 1 -56
29 -109 54 -103 118 -131 254 -110 92 14 177 57 244 124 30 30 62 55 70 56 42
6 52 -2 80 -65 34 -75 55 -91 238 -182 124 -63 186 -75 282 -54 75 16 176 67
226 113 84 77 242 430 324 723 31 110 27 117 -83 168 -113 54 -209 125 -231
172 -33 69 -96 71 -161 5 -50 -52 -97 -67 -220 -74 -55 -3 -115 -8 -134 -12
-26 -6 -33 -4 -29 7 10 30 68 57 150 69 166 23 198 40 198 103 0 70 -61 137
-125 137 -21 0 -46 13 -79 40 -27 22 -58 42 -70 45 -11 2 -43 8 -71 12 l-50 8
38 22 c20 12 37 27 37 33 0 12 -72 11 -147 -1z"/>
<path d="M2654 3923 c21 -74 38 -206 44 -337 7 -131 11 -158 26 -175 41 -45
46 -31 46 128 0 200 -24 327 -72 379 -26 27 -52 30 -44 5z"/>
<path d="M4580 3776 c-113 -30 -250 -135 -250 -190 0 -38 20 -33 95 24 66 50
95 61 95 37 0 -7 -32 -44 -71 -82 -81 -80 -135 -153 -123 -165 5 -5 40 11 78
36 38 24 72 42 74 39 3 -3 -15 -31 -40 -62 -25 -32 -50 -67 -55 -78 -17 -33
-25 -93 -13 -100 6 -3 37 22 69 57 33 34 63 60 67 56 13 -14 -17 -89 -50 -126
-46 -52 -59 -79 -44 -89 49 -31 247 -125 290 -138 109 -32 185 -16 254 55 27
28 51 50 55 50 10 0 38 -74 45 -119 6 -35 3 -41 -20 -56 -47 -31 -47 -42 -16
-196 17 -79 33 -187 36 -239 7 -112 -9 -314 -26 -335 -18 -22 -44 -19 -35 3
14 31 17 208 6 293 -19 145 -64 250 -93 221 -20 -20 -12 -115 17 -212 34 -112
42 -203 22 -252 -14 -34 -61 -77 -73 -66 -3 3 5 40 17 81 19 63 21 80 11 102
-16 34 -40 29 -68 -12 -23 -35 -104 -237 -141 -351 -38 -118 -30 -163 48 -302
48 -87 56 -110 33 -110 -22 0 -89 69 -183 189 -90 113 -158 163 -268 197 -70
21 -88 31 -118 67 -43 50 -94 153 -102 205 -6 37 -5 36 93 -65 96 -98 103
-103 236 -167 158 -75 186 -85 199 -65 5 8 9 61 9 119 1 127 12 155 99 255
111 127 141 228 86 294 -40 47 -81 56 -251 53 -138 -3 -157 -1 -230 22 -103
33 -144 33 -184 0 -54 -46 -73 -96 -79 -216 -6 -100 -13 -130 -27 -115 -4 3
-9 32 -13 64 -7 65 -29 82 -49 38 -20 -44 -14 -96 18 -155 63 -113 66 -122
135 -380 32 -117 80 -221 131 -279 34 -40 204 -161 225 -161 19 0 15 22 -22
135 -43 134 -49 178 -21 173 27 -5 76 -88 101 -169 50 -165 60 -176 254 -269
128 -62 214 -87 205 -59 -4 13 -35 36 -144 104 -92 58 -66 70 61 29 44 -14
109 -30 145 -35 70 -10 93 -28 84 -63 -13 -52 49 -73 133 -45 82 26 103 59 39
59 -18 0 -41 7 -52 15 -19 15 -18 15 6 36 162 133 154 110 160 436 3 144 8
265 13 269 15 15 20 -8 25 -106 3 -55 8 -100 12 -100 25 0 73 194 74 295 0 68
-7 107 -51 255 -66 225 -79 293 -93 470 -19 247 -51 362 -129 464 -63 83 -302
318 -369 363 -118 79 -233 102 -352 69z m754 -702 c26 -68 -37 -177 -93 -159
-29 9 -34 38 -16 82 30 72 94 117 109 77z"/>
<path d="M2569 3648 c-49 -77 -51 -121 -8 -143 52 -27 60 -16 57 77 -2 67 -6
83 -19 86 -9 2 -23 -7 -30 -20z"/>
<path d="M2855 3588 c9 -65 21 -98 35 -98 20 0 49 20 60 40 20 37 -36 110 -83
110 -17 0 -18 -5 -12 -52z"/>
<path d="M975 3474 c-141 -73 -311 -292 -318 -409 -2 -39 -2 -40 36 -43 27 -2
37 -8 37 -21 0 -25 -26 -47 -100 -84 -84 -42 -95 -63 -81 -157 13 -84 14 -130
2 -130 -5 0 -23 23 -41 51 -41 67 -53 55 -58 -60 -6 -128 11 -205 84 -379 63
-152 80 -213 50 -182 -8 8 -40 62 -71 120 -31 58 -63 112 -71 120 -25 25 -17
-45 31 -280 63 -304 86 -374 157 -477 25 -37 29 -55 34 -130 3 -49 10 -104 16
-123 30 -96 96 -184 206 -273 136 -110 186 -112 103 -4 -93 121 -109 175 -57
185 26 5 41 -12 91 -103 73 -134 106 -152 265 -143 110 7 153 28 158 77 4 42
-17 66 -72 80 -53 13 -158 82 -175 115 -16 30 -8 56 17 56 10 0 49 -28 87 -61
92 -82 142 -102 213 -83 40 11 24 39 -62 107 -47 37 -130 108 -187 159 -93 83
-106 92 -150 96 -39 4 -56 0 -93 -22 -46 -27 -80 -33 -91 -16 -3 5 0 36 6 68
l12 59 -45 99 c-71 153 -81 207 -80 429 0 105 1 199 1 210 1 12 26 50 56 85
63 74 72 114 29 124 -50 13 -139 -15 -177 -56 -11 -10 -24 -17 -30 -15 -7 2
-26 32 -44 67 -41 83 -33 96 44 69 58 -21 103 -19 123 7 10 11 6 21 -19 49
-64 73 -52 110 81 250 205 216 234 256 223 312 -3 18 -10 76 -14 128 -12 139
-44 172 -126 129z"/>
<path d="M2853 3438 c-13 -6 -23 -19 -23 -29 0 -30 37 -41 116 -37 61 3 78 7
96 26 23 23 23 23 4 38 -24 17 -159 18 -193 2z"/>
<path d="M3965 3365 c-153 -34 -235 -99 -235 -188 0 -43 35 -109 115 -217 63
-85 89 -133 78 -143 -9 -10 -102 30 -140 59 -47 36 -86 99 -123 202 -38 105
-43 112 -86 112 -58 0 -136 21 -260 71 -161 65 -239 82 -335 76 -94 -6 -152
-31 -218 -92 -42 -39 -65 -78 -152 -253 -131 -267 -161 -347 -161 -432 -1
-139 94 -260 272 -350 91 -45 299 -121 351 -127 42 -5 49 -3 55 13 14 45 20
48 150 69 136 23 265 57 298 81 11 7 27 33 36 56 16 45 22 50 165 132 99 58
170 122 205 186 19 33 38 51 75 70 47 23 57 25 170 21 66 -3 203 -5 305 -5
205 -1 260 9 260 47 0 39 -41 106 -96 156 -47 43 -69 55 -155 81 -117 36 -165
75 -194 155 -32 90 -57 136 -92 170 -64 62 -160 78 -288 50z"/>
<path d="M2345 2469 c-18 -29 -210 -105 -350 -138 -27 -7 -57 -19 -66 -27 -8
-8 -18 -14 -21 -14 -3 0 -26 32 -52 70 -51 77 -85 102 -111 80 -40 -33 9 -290
55 -290 4 0 27 13 51 30 24 16 52 30 61 30 42 0 128 -107 143 -176 15 -76 92
-90 187 -36 31 18 63 32 72 32 9 0 29 -21 45 -47 78 -129 96 -153 123 -164 36
-15 272 -7 308 10 14 7 36 32 50 57 30 58 70 91 126 105 86 22 69 43 -68 88
-127 41 -213 80 -296 134 -84 55 -134 106 -186 193 -43 70 -59 84 -71 63z"/>
<path d="M1029 2436 c-103 -28 -148 -92 -149 -211 0 -67 23 -320 36 -395 9
-49 32 -90 50 -90 20 0 34 41 45 135 9 85 33 164 93 308 57 139 61 232 10 255
-29 14 -26 14 -85 -2z"/>
<path d="M3880 2114 c-84 -44 -200 -69 -420 -89 -301 -27 -609 -122 -586 -180
6 -15 15 -17 69 -11 34 4 85 10 113 13 67 7 75 -7 35 -62 -40 -56 -44 -89 -13
-93 37 -6 89 37 153 126 84 115 123 131 238 96 52 -15 54 -15 78 8 l25 23 37
-45 c84 -104 116 -130 157 -130 47 0 277 109 293 138 12 23 -12 150 -38 202
-24 47 -57 48 -141 4z"/>
<path d="M1855 2112 c-90 -55 -138 -187 -101 -277 21 -49 44 -58 103 -40 63
19 134 19 177 -1 23 -11 45 -14 69 -10 74 14 76 65 5 112 -70 45 -84 60 -123
130 -31 55 -75 104 -94 104 -3 0 -20 -8 -36 -18z"/>
<path d="M2247 1882 c-27 -30 -37 -71 -37 -155 1 -143 48 -204 200 -251 115
-37 193 -48 325 -50 135 -1 171 10 205 66 27 45 36 138 16 177 -29 55 -61 64
-261 72 -99 3 -200 12 -225 19 -44 12 -93 54 -133 113 -21 32 -65 36 -90 9z"/>
<path d="M3347 1856 c-30 -28 -36 -70 -11 -80 9 -3 37 -6 64 -6 65 0 78 17 53
67 -23 49 -66 57 -106 19z"/>
<path d="M1653 1824 c-17 -45 21 -470 58 -651 28 -135 99 -262 99 -175 0 15
-9 56 -20 90 -26 83 -25 98 6 129 l25 25 -21 23 c-17 18 -24 41 -27 89 -4 42
-2 66 4 66 6 0 27 -20 48 -45 20 -25 54 -54 76 -65 43 -22 177 -47 202 -37 25
9 37 73 37 198 0 131 -10 170 -53 216 -36 39 -81 55 -153 57 -66 1 -97 -20
-139 -97 -16 -31 -35 -57 -41 -57 -18 0 -25 43 -18 104 8 64 -6 107 -42 131
-29 19 -33 19 -41 -1z"/>
<path d="M3223 1731 c-23 -21 -69 -52 -103 -70 -62 -33 -67 -50 -13 -51 27 0
53 -10 53 -20 0 -5 -24 -22 -54 -38 -50 -29 -96 -73 -96 -93 0 -26 157 25 198
63 33 32 86 228 65 241 -5 3 -27 -12 -50 -32z"/>
<path d="M3421 1719 c-58 -29 -101 -56 -101 -65 0 -22 41 -17 94 11 26 14 72
27 104 31 89 8 102 13 102 33 0 20 -38 41 -75 41 -13 0 -69 -23 -124 -51z"/>
<path d="M3485 1636 c-27 -13 -93 -58 -145 -101 -52 -43 -144 -111 -205 -150
-60 -39 -115 -78 -122 -86 -17 -21 -73 -226 -73 -267 l0 -34 43 6 c23 3 121
10 217 15 199 11 254 25 299 76 16 18 39 63 51 99 26 79 82 347 74 355 -3 3
-23 -4 -44 -17 -39 -22 -70 -29 -70 -14 0 4 25 32 55 62 30 30 55 60 55 67 0
21 -80 15 -135 -11z"/>
<path d="M2212 1428 c-7 -7 -12 -39 -12 -76 0 -78 33 -154 94 -217 36 -38 48
-44 100 -50 169 -21 429 48 492 131 53 69 50 152 -4 140 -15 -3 -68 -9 -118
-12 -125 -9 -237 9 -357 57 -100 40 -172 50 -195 27z"/>
<path d="M1894 1232 c-25 -17 -44 -60 -44 -99 0 -82 33 -131 115 -169 62 -29
104 -30 207 -3 44 11 87 18 94 15 26 -10 14 -25 -28 -37 -86 -23 -89 -25 -76
-60 6 -17 25 -40 42 -50 32 -21 65 -21 202 -3 43 5 61 2 121 -25 77 -34 124
-39 143 -17 16 20 -16 62 -93 122 -37 30 -56 51 -53 61 3 7 -2 17 -11 20 -15
6 -38 1 -120 -25 -27 -9 -37 -7 -55 7 l-22 18 27 18 c34 22 34 35 2 35 -51 0
-92 27 -128 83 l-35 54 -71 5 c-50 4 -87 13 -122 32 -52 27 -76 31 -95 18z"/>
<path d="M2798 1079 c-32 -16 -84 -35 -117 -43 -74 -17 -81 -22 -81 -49 1 -28
17 -49 71 -92 50 -39 96 -46 122 -17 35 39 87 154 87 193 0 47 -6 48 -82 8z"/>
</g>
</svg>
